<svg fill="none" height="48" viewBox="0 0 48 48" width="48" xmlns="http://www.w3.org/2000/svg"><path d="m0 0h48v48h-48z" fill="#fff" fill-opacity=".01"/><path d="m48 0h-48v48h48z" fill="#fff" fill-opacity=".01"/><g stroke="#000" stroke-linejoin="round" stroke-width="4"><path d="m16 24c5.5228 0 10-4.4772 10-10 0-5.52285-4.4772-10-10-10s-10 4.47715-10 10c0 5.5228 4.4772 10 10 10z" fill="#2f88ff"/><path d="m26 15.202c.0144.0143 4.7229 5.9356 14.1256 17.7636.3306.3974.3039.9812-.0616 1.3468l-4.0835 4.0835c-.3655.3655-.9494.3922-1.3467.0616l-16.8116-14.4575" stroke-linecap="round"/><path d="m26.47 24.4701 2.8284 2.8284" stroke-linecap="round"/><path d="m17 44.0864c1.9166-2.4983 4.2468-3.7475 6.9906-3.7475 4.1157 0 8.9723 5.1708 13.1157 4.4591 4.1433-.7116 5.3292-4.798 2.7788-7.0605" stroke-linecap="round"/></g></svg>