<svg viewBox="0 0 14 14" xmlns="http://www.w3.org/2000/svg"><path d="m11.068975 6.28432c.420113-1.364469.650341-2.701479.683291-3.974491.0095-.364985-.149542-.779606-.3954-1.032011-.293382-.30098599-.692373-.36245099-1.086084-.159681-.6309083.325487-1.0820703 1.282938-1.4445203 2.052617-.02091.04436-.0414.08766-.06168.130533-.08005-.368153-.323375-.683079-.66935-.847407-.08153-.392021-.392444-.699132-.783197-.778761-.0042-.02197-.0095-.04351-.01605-.06527-.08047-.275005-.323375-.481999-.603872-.515372-.162216-.01985-.315982.01436-.4490499.09209-.1140578-.06337-.2420559-.09716-.3734336-.09716-.3673083 0-.6758979.256208-.756372.599015-.4015256.109411-.6959637.477986-.699132.906336-.458132.118283-.7918566.53227-.7918566 1.02462 0 .130532.024501.259798.071603.381671-.1189149.1468-.1848149.33056-.1848149.523402 0 .115748.023868.227271.068857.330345-.2110069-.230228-.5079796-.418423-.841493-.406172-.1165924.0038-.208261.101173-.2046703.217766.00359.114269.097372.20467.2110069.20467.00718.000211.013729-.000422.020488-.000422.1979114 0 .3818824.130955.5157946.283032-.3349919.09653-.7388409.253673-.9272474.608942-.1132129.213541-.1265197.475663-.05196.775593-.037597.06146-.055973.133489-.05196.210584l.3594932 5.108943c.03274.640625.5607849 1.142268 1.2020431 1.142268h5.9291039c.6412583 0 1.1693033-.501643 1.2018313-1.138466l.368786-5.290168c.004-.07562-.02366-.15081-.07583-.205727-.04288-.04626-.102441-.07287-.164328-.08132zm-2.1318243-2.378738c.08364-.15609.174889-.349566.271415-.554659.317461-.674208.75257-1.597442 1.2559033-1.85724.228116-.117438.42307-.09209.589932.07899.188407.193053.281132.51157.27564.726168-.03232 1.248721-.260432 2.56292-.678221 3.906268-.01373.04414-.04414.133278-.08744.255573l-.359915.159893c-.0078.0036-.01542.0074-.02281.01204-.101807.06104-.2194553.09125-.3371043.09251-.117648-.0013-.235086-.03147-.336893-.09251l-.150598-.0904c-.169609-.101596-.363718-.155457-.561418-.155457-.05344 0-.106454.0046-.158836.01246-.146374.0188-.289158.06653-.416733.143206l-.150388.0904c-.08216.04921-.175311.07329-.269725.08364.0046-.01584.0099-.03147.01457-.04731.05851-.19939.121661-.396034.187561-.590989.02408-.07139.04921-.142149.07456-.212907.05513-.155034.112791-.308379.172354-.460245.02556-.06484.05006-.130532.07646-.194743.184183-.450528.387586-.886693.611688-1.304694zm-2.440414 2.498921c-.02323.004-.04626.0082-.06907.01373-.0697.01542-.1381369.03633-.2038257.06527l-.040552-.185453c.060831.0051.1214504.01014.1782676.01014.368365 0 .664915-.109622 1.005821-.352101.107299-.07646.202347-.134334.292748-.182281-.01943.05513-.03865.110045-.05745.165384-.01352.03971-.02809.07878-.04119.118705-.0621.187984-.12124.377446-.176368.568599l-.14046-.08407c-.169608-.101596-.363717-.155457-.561417-.155457-.05111 0-.101596.0049-.151866.01204-.01141.0013-.02302.0038-.03464.0055zm-.3356255-2.854823c-.047313.0097-.094203-.02197-.1039193-.06674-.010139-.04626.020488-.09378.066745-.10392l1.1849338-.257052c.04098 0 .07688.02894.08554.06865.0068.03042-.0046.05428-.01225.0659-.0074.01141-.02408.03147-.05449.03823zm.08322.8567c.024712-.03168.048791-.06252.072025-.09336.016686-.02218.031261-.0452.043511-.06822.05196-.09779.06421-.207416.04013-.314926l.881625-.192631c.0059.02704.01225.05386.02239.07879.0395.09674.110045.177212.208262.233396.0321.01774.06569.03548.100327.05386.02852.015.05703.03063.08576.04626.01373.0074.02767.01479.0414.02239.02514.01415.04942.02978.07393.0452.02091.01288.04161.02619.06189.04034.02345.01626.04583.03422.06822.05238.01964.01605.03844.03358.05703.05154.02007.01964.03992.03971.0583.06168.03253.03887.06379.07921.08935.127576-.08956.1977-.173833.399414-.255363.602817-.01267.03147-.02619.0621-.03865.09357-.231495.05872-.455175.168552-.731448.365196-.348088.247337-.607252.313026-1.0343323.251139l-.1282339-.586989c-.087022-.39709.1015959-.637457.2838771-.870008zm-1.2506225 5.251938c.1165924 0 .2112181.09442.2112181.211218 0 .116804-.094626.211219-.2112181.211219h-1.4785267c-.1165924 0-.2112181-.09441-.2112181-.211219 0-.116803.094626-.211218.2112181-.211218zm-1.4785267.844873h1.9009629c.1165924 0 .2112181.09441.2112181.211218 0 .116803-.094626.211218-.2112181.211218h-1.9009629c-.1165924 0-.2112181-.09441-.2112181-.211218 0-.116804.094626-.211218.2112181-.211218zm.567543-6.296834.1383479-.114058-.089768-.154823c-.056184-.09716-.085966-.206994-.085966-.318094 0-.342174.2680358-.621193.6102091-.635556l.2564188-.01077-.059775-.249448c-.010139-.04182-.015208-.08301-.015208-.122085 0-.272048.2124854-.50122.4836894-.521919l.1951656-.01479v-.210162c.00613-.189885.1626379-.342596.3542127-.342596.1102559 0 .1892515.05027.2359307.09251l.1480639.133701.1419386-.140249c.06484-.06421.152077-.09547.246492-.08364.113212.01331.215442.101596.248392.21502.0112.03802.01436.07477.0099.112157l-.02471.235719h.237831c.303521 0 .557405.237198.578316.540085l.0095.13877.131167.04605c.330134.115958.547266.42835.539873.777916-.0032.149331-.05133.293171-.138559.419268-.141305-.119972-.293593-.200869-.421591-.268247-.03316-.01753-.06527-.03443-.09758-.05238-.0091-.0051-.02007-.01394-.02387-.03612-.0051-.03042.0063-.06696.02936-.09378.09209-.106877.129054-.252617.09927-.39012l-.02556-.116381c-.05175-.236776-.299085-.396668-.53586-.343652l-.0564.01225c-.000633.000212-.0013 0-.0017.000212l-.619926.135602-.6049283.132011c-.2424784.05302-.3966676.293382-.3434407.536072l.012673.05745v.000634c0 .000211.0002112.000422.0002112.000844l.012462.05724c.030627.140671.1284206.259164.2612768.316193.03295.01415.060408.04098.069913.06822.00549.01563.00232.02366-.00993.04393-.021122.02809-.043511.05682-.066534.08597-.023445.02978-.047735.06125-.072236.09357-.0076.0099-.014785.02028-.022389.03042-.018165.0245-.036118.04985-.054283.07604-.00908.01331-.017954.02704-.027036.04077-.016264.02513-.032105.0509-.047524.07773-.00866.015-.017109.02978-.025557.0452-.016053.02978-.030627.06125-.044778.09315-.00591.01331-.012251.02598-.017742.03971-.018587.04626-.035062.09442-.048369.145107-.0019.0076-.00275.01584-.00465.02366-.01035.04351-.018376.08829-.023868.13539-.00211.01859-.00253.03802-.0038.05724-.00169.02492-.00486.04879-.00486.07477-.00613-.008-.012039-.01479-.018165-.0226-.01394-.01816-.027881-.03464-.041821-.05196-.03126-.03865-.062732-.0754-.094203-.109834-.015419-.0169-.031049-.03358-.046468-.04942-.033161-.03379-.066745-.06484-.1001174-.09399-.012462-.01077-.024713-.02281-.037174-.03295-.044567-.03633-.089556-.06843-.1349683-.09653-.013729-.0084-.02767-.01479-.041399-.0226-.032739-.01838-.065689-.03527-.09885-.04942-.018165-.0078-.036541-.01457-.054917-.02091-.030204-.01077-.060408-.01943-.090824-.02661-.018376-.0044-.036752-.0093-.055128-.01246-.038442-.0065-.077095-.0099-.1159587-.01098-.00887-.000211-.017742-.0025-.026613-.0025-.2194556 0-.4192679.08554-.5964799.20108-.019432-.04774-.029571-.09906-.029571-.152077-.0002112-.123351.054705-.23931.1503873-.317883zm-1.3570763 1.753744c.089345-.168341.3062663-.296762.6828681-.404483.1761559-.05027.3396388-.144262.4722837-.270993.05893-.0564.1146915-.105187.1685521-.148909.047947-.03907.094203-.07329.1387703-.102652.00169-.0011.00338-.0021.00507-.0032.088289-.05745.1702418-.09568.246914-.115325.00317-.000845.00613-.0015.00929-.0021.037597-.0089.074138-.01394.1094109-.01394.2657124 0 .5506456.265079.8469846.787844.1552454.27395.2069938.678432.1396152 1.031167-.015841-.0015-.03126-.0036-.04689-.0061-.075827-.01457-.1493312-.03886-.2152313-.07836l-.1505961-.09041c-.1696081-.101596-.3637175-.155456-.5614177-.155456-.053438 0-.1064539.0046-.158836.01246-.1463741.0188-.2891576.06653-.4167333.143206l-.073293.04393c-.1252523.07498-.2695143.11279-.4141987.114057-.1446844-.0013-.2891576-.03886-.4141987-.114057l-.2845105-.170871c-.036963-.02197-.077306-.03739-.119127-.0452-.033584-.167708-.021756-.302887.035273-.410608zm3.1129324 5.810398h-2.3233991c-.1165924 0-.2112181-.09441-.2112181-.211218 0-.116803.094626-.211218.2112181-.211218h2.3233991c.1165924 0 .2112181.09441.2112181.211218 0 .116804-.094626.211218-.2112181.211218zm1.2673086 0h-.422436c-.116593 0-.211218-.09441-.211218-.211218 0-.116803.09463-.211218.211218-.211218h.422436c.116592 0 .211218.09441.211218.211218 0 .116804-.09463.211218-.211218.211218zm2.554049-8.370996c.0226.0076.04541.0112.06801.0112.08808 0 .170241-.05534.200023-.143417.04858-.143206.2050933-.220301.3480883-.17172.176367.05977.365407.04752.53248-.03464.166863-.08238.291693-.224736.351679-.401103.0376-.110256-.02154-.230439-.132012-.268036-.110889-.03781-.230439.02175-.268035.132222-.02366.06949-.07287.125675-.13856.157992-.06569.03232-.140037.03717-.209739.01331-.363718-.122717-.7605973.07245-.8839483.435954-.0376.110679.02154.230651.132011.268247zm-.49953 1.471768c.02239.0076.04541.0112.0678.0112.08808 0 .170241-.05534.200023-.143417.03189-.09399.09843-.170031.187562-.213964.08913-.04393.189885-.05027.283877-.01838.4144103.140249.8664173-.08216 1.0070883-.496996.0376-.110256-.02176-.230439-.132011-.268036-.110468-.03802-.230439.02175-.267825.132222-.0659.194321-.276907.298452-.471439.232551-.2010793-.06822-.4163113-.05428-.6064073.03971-.190096.09378-.332457.256208-.400681.457076-.0376.110468.02154.230439.132012.268036zm-.499742 1.471768c.02239.0076.04541.0112.0678.0112.08808 0 .170241-.05534.200023-.143418.06611-.193898.277541-.298028.471439-.232339.41441.140248.8666283-.08216 1.0070883-.496785.0376-.110256-.02154-.230439-.132011-.268036-.11089-.03739-.230439.02175-.268036.132222-.0659.19411-.2773303.29824-.4714393.23234-.413776-.139615-.866417.08237-1.007088.496785-.03739.110467.02175.230439.132223.268036z"/></svg>