<svg enable-background="new 0 0 1600 1200" fill="none" height="1200" viewBox="0 0 1600 1200" width="1600" xmlns="http://www.w3.org/2000/svg"><path d="m1325.24 1051.82 129.83-507.18c3.52-13.77 1.66-28.37-5.18-40.82l-137.03-249.35c-8.81-16.04-24.9-26.76-43.1-28.71l-738.84-79.37c-16.44-1.77-32.82 3.82-44.75 15.27l-331.97 318.46c-12.94 12.41-19.15 30.26-16.71 48.02l71.28 523.69h1116.47z" fill="#f4f4f4"/><path d="m1325.24 1051.82h-1121.35l-14.03-138.94h1170.94z" fill="#afb3b8"/><path d="m1351.82 950.79h-1158.13l-1.62-16h1163.96z" fill="#fff" opacity=".16"/><path d="m475.3 1000.52h-189.56v16h189.56z" fill="#fff" opacity=".16"/><path d="m946.76 1000.52h-189.56v16h189.56z" fill="#fff" opacity=".16"/><path d="m1334.53 1016.52h-105.88v-16h110.08z" fill="#fff" opacity=".16"/><path d="m851.34 409.301s-11.3-2.49-18.97-10.16-21.3-30.11-55.82-20.52-32.6 15.34-49.86 13.42-34.52-34.04-61.36-26.85c-26.85 7.19-58.92 44.1-58.92 44.1z" fill="#fff"/><path d="m423.45 221.831h178.01s-11.3-2.49-18.97-10.16-21.3-30.11-55.82-20.52-32.6 15.34-49.86 13.42c-7.1-.79-14.2-6.69-21.97-12.86z" fill="#fff"/><path d="m1389.01 436.471s-7.23-1.59-12.15-6.51c-4.91-4.91-13.64-19.28-35.74-13.14s-20.87 9.82-31.93 8.6c-11.05-1.23-22.1-21.8-39.29-17.19-17.19 4.6-37.73 28.24-37.73 28.24z" fill="#fff"/><path d="m701.59 514.72s-8.35-1.84-14.01-7.51c-5.67-5.67-15.74-22.24-41.24-15.16s-24.08 11.33-36.83 9.92c-12.75-1.42-25.5-25.15-45.33-19.83-19.83 5.31-43.53 32.58-43.53 32.58z" fill="#fff"/><path d="m1432.01 634.72h-300.16c29.3-29.3 89.15-13.62 118.86-11.56 29.72 2.06 51.59-29.72 81.3-37.14 29.72-7.43 52 13.62 73.88 23.94 12.56 5.93 21.86 6.13 31.17 5z" fill="#fff"/><path d="m677.301 272.791s-12.88-24.32-32.33-18.02c-18.76 6.08-20.73 23.46-20.73 23.46s-16.43-20.38-35.56-11.86c-17.24 7.68-13.92 31.26-13.92 31.26s3.58-20.96 20.23-24.52 31.13 14.53 31.13 14.53 3.56-19.92 21.05-24.96c17.48-5.05 30.13 10.11 30.13 10.11z" fill="#21252b"/><path d="m554.13 264.451s-8.64-19.04-24.57-13.99c-13.23 4.19-14.68 16.29-14.68 16.29s-11.81-13.93-25-7.66c-11.89 5.65-9.17 22.04-9.17 22.04s2.6-14.96 14.15-17.73 21.49 9.88 21.49 9.88 3.91-13.68 16.02-17.49c12.1-3.84 21.76 8.66 21.76 8.66z" fill="#21252b"/><path d="m905.52 417.8h-155.1c-3.91 0-7.08-3.17-7.08-7.07v-128.46c0-3.91 3.17-7.07 7.08-7.07h155.09c3.91 0 7.07 3.17 7.07 7.07v128.46c.01 3.91-3.16 7.07-7.06 7.07z" fill="#4d61fc"/><path d="m905.52 417.8h-155.1c-3.91 0-7.08-3.17-7.08-7.07v-128.46c0-3.91 3.17-7.07 7.08-7.07h155.09c3.91 0 7.07 3.17 7.07 7.07v128.46c.01 3.91-3.16 7.07-7.06 7.07z" fill="#fff" opacity=".3"/><path d="m898.86 417.8h-155.09c-3.91 0-7.08-3.17-7.08-7.07v-128.46c0-3.91 3.17-7.07 7.08-7.07h155.09c3.91 0 7.08 3.17 7.08 7.07v128.46c0 3.91-3.17 7.07-7.08 7.07z" fill="#4d61fc"/><path d="m898.86 417.8h-155.09c-3.91 0-7.08-3.17-7.08-7.07v-128.46c0-3.91 3.17-7.07 7.08-7.07h155.09c3.91 0 7.08 3.17 7.08 7.07v128.46c0 3.91-3.17 7.07-7.08 7.07z" fill="#fff" opacity=".7"/><path d="m866.08 401.4h-90.62c-5.82 0-10.54-4.72-10.54-10.54s4.72-10.54 10.54-10.54h90.62c5.82 0 10.54 4.72 10.54 10.54s-4.72 10.54-10.54 10.54z" fill="#4d61fc" opacity=".04"/><path d="m757.81 304.45c4.501 0 8.15-3.648 8.15-8.15 0-4.501-3.649-8.15-8.15-8.15s-8.15 3.649-8.15 8.15c0 4.502 3.649 8.15 8.15 8.15z" fill="#4d61fc"/><path d="m757.81 299.85c1.961 0 3.55-1.589 3.55-3.55s-1.589-3.55-3.55-3.55c-1.96 0-3.55 1.589-3.55 3.55s1.59 3.55 3.55 3.55z" fill="#fff"/><path d="m1115.39 417.8h-155.089c-3.91 0-7.08-3.17-7.08-7.07v-128.46c0-3.91 3.17-7.07 7.08-7.07h155.089c3.91 0 7.07 3.17 7.07 7.07v128.46c.01 3.91-3.16 7.07-7.07 7.07z" fill="#4d61fc"/><path d="m1115.39 417.8h-155.089c-3.91 0-7.08-3.17-7.08-7.07v-128.46c0-3.91 3.17-7.07 7.08-7.07h155.089c3.91 0 7.07 3.17 7.07 7.07v128.46c.01 3.91-3.16 7.07-7.07 7.07z" fill="#fff" opacity=".3"/><path d="m1108.74 417.8h-155.1c-3.91 0-7.07-3.17-7.07-7.07v-128.46c0-3.91 3.17-7.07 7.07-7.07h155.09c3.91 0 7.07 3.17 7.07 7.07v128.46c.01 3.91-3.16 7.07-7.06 7.07z" fill="#4d61fc"/><path d="m1108.74 417.8h-155.1c-3.91 0-7.07-3.17-7.07-7.07v-128.46c0-3.91 3.17-7.07 7.07-7.07h155.09c3.91 0 7.07 3.17 7.07 7.07v128.46c.01 3.91-3.16 7.07-7.06 7.07z" fill="#fff" opacity=".7"/><path d="m1075.95 401.4h-90.62c-5.82 0-10.54-4.72-10.54-10.54s4.72-10.54 10.54-10.54h90.62c5.82 0 10.54 4.72 10.54 10.54.01 5.82-4.71 10.54-10.54 10.54z" fill="#4d61fc" opacity=".04"/><path d="m967.68 304.45c4.501 0 8.15-3.648 8.15-8.15 0-4.501-3.649-8.15-8.15-8.15s-8.15 3.649-8.15 8.15c0 4.502 3.649 8.15 8.15 8.15z" fill="#4d61fc"/><path d="m967.68 299.85c1.96 0 3.55-1.589 3.55-3.55s-1.59-3.55-3.55-3.55c-1.961 0-3.55 1.589-3.55 3.55s1.589 3.55 3.55 3.55z" fill="#fff"/><path d="m1325.26 417.8h-155.09c-3.91 0-7.07-3.17-7.07-7.07v-128.46c0-3.91 3.17-7.07 7.07-7.07h155.09c3.91 0 7.08 3.17 7.08 7.07v128.46c0 3.91-3.17 7.07-7.08 7.07z" fill="#4d61fc"/><path d="m1325.26 417.8h-155.09c-3.91 0-7.07-3.17-7.07-7.07v-128.46c0-3.91 3.17-7.07 7.07-7.07h155.09c3.91 0 7.08 3.17 7.08 7.07v128.46c0 3.91-3.17 7.07-7.08 7.07z" fill="#fff" opacity=".3"/><path d="m1318.61 417.8h-155.09c-3.91 0-7.08-3.17-7.08-7.07v-128.46c0-3.91 3.17-7.07 7.08-7.07h155.09c3.91 0 7.07 3.17 7.07 7.07v128.46c.01 3.91-3.16 7.07-7.07 7.07z" fill="#4d61fc"/><path d="m1318.61 417.8h-155.09c-3.91 0-7.08-3.17-7.08-7.07v-128.46c0-3.91 3.17-7.07 7.08-7.07h155.09c3.91 0 7.07 3.17 7.07 7.07v128.46c.01 3.91-3.16 7.07-7.07 7.07z" fill="#fff" opacity=".7"/><path d="m1285.83 401.4h-90.62c-5.82 0-10.54-4.72-10.54-10.54s4.72-10.54 10.54-10.54h90.62c5.82 0 10.54 4.72 10.54 10.54s-4.72 10.54-10.54 10.54z" fill="#4d61fc" opacity=".04"/><path d="m1177.55 304.45c4.5 0 8.15-3.648 8.15-8.15 0-4.501-3.65-8.15-8.15-8.15s-8.15 3.649-8.15 8.15c0 4.502 3.65 8.15 8.15 8.15z" fill="#4d61fc"/><path d="m1177.55 299.85c1.96 0 3.55-1.589 3.55-3.55s-1.59-3.55-3.55-3.55-3.55 1.589-3.55 3.55 1.59 3.55 3.55 3.55z" fill="#fff"/><path d="m1006.71 591.62h-155.1c-3.91 0-7.07-3.17-7.07-7.08v-128.46c0-3.91 3.17-7.07 7.07-7.07h155.09c3.91 0 7.08 3.17 7.08 7.07v128.46c0 3.91-3.17 7.08-7.07 7.08z" fill="#4d61fc"/><path d="m1006.71 591.62h-155.1c-3.91 0-7.07-3.17-7.07-7.08v-128.46c0-3.91 3.17-7.07 7.07-7.07h155.09c3.91 0 7.08 3.17 7.08 7.07v128.46c0 3.91-3.17 7.08-7.07 7.08z" fill="#fff" opacity=".3"/><path d="m1000.05 591.62h-155.09c-3.91 0-7.08-3.17-7.08-7.08v-128.46c0-3.91 3.17-7.07 7.08-7.07h155.09c3.91 0 7.07 3.17 7.07 7.07v128.46c.01 3.91-3.16 7.08-7.07 7.08z" fill="#4d61fc"/><path d="m1000.05 591.62h-155.09c-3.91 0-7.08-3.17-7.08-7.08v-128.46c0-3.91 3.17-7.07 7.08-7.07h155.09c3.91 0 7.07 3.17 7.07 7.07v128.46c.01 3.91-3.16 7.08-7.07 7.08z" fill="#fff" opacity=".7"/><path d="m967.269 575.21h-90.62c-5.82 0-10.54-4.72-10.54-10.54s4.72-10.54 10.54-10.54h90.62c5.82 0 10.54 4.72 10.54 10.54s-4.72 10.54-10.54 10.54z" fill="#4d61fc" opacity=".04"/><path d="m858.99 478.26c4.501 0 8.15-3.649 8.15-8.15s-3.649-8.15-8.15-8.15-8.15 3.649-8.15 8.15 3.649 8.15 8.15 8.15z" fill="#4d61fc"/><path d="m858.989 473.66c1.961 0 3.55-1.59 3.55-3.55 0-1.961-1.589-3.55-3.55-3.55-1.96 0-3.55 1.589-3.55 3.55 0 1.96 1.59 3.55 3.55 3.55z" fill="#fff"/><path d="m1216.58 591.62h-155.09c-3.91 0-7.08-3.17-7.08-7.08v-128.46c0-3.91 3.17-7.07 7.08-7.07h155.09c3.91 0 7.07 3.17 7.07 7.07v128.46c0 3.91-3.16 7.08-7.07 7.08z" fill="#4d61fc"/><path d="m1216.58 591.62h-155.09c-3.91 0-7.08-3.17-7.08-7.08v-128.46c0-3.91 3.17-7.07 7.08-7.07h155.09c3.91 0 7.07 3.17 7.07 7.07v128.46c0 3.91-3.16 7.08-7.07 7.08z" fill="#fff" opacity=".3"/><path d="m1209.93 591.62h-155.09c-3.91 0-7.07-3.17-7.07-7.08v-128.46c0-3.91 3.17-7.07 7.07-7.07h155.09c3.91 0 7.07 3.17 7.07 7.07v128.46c0 3.91-3.17 7.08-7.07 7.08z" fill="#4d61fc"/><path d="m1209.93 591.62h-155.09c-3.91 0-7.07-3.17-7.07-7.08v-128.46c0-3.91 3.17-7.07 7.07-7.07h155.09c3.91 0 7.07 3.17 7.07 7.07v128.46c0 3.91-3.17 7.08-7.07 7.08z" fill="#fff" opacity=".7"/><path d="m1177.14 575.21h-90.62c-5.82 0-10.54-4.72-10.54-10.54s4.72-10.54 10.54-10.54h90.62c5.82 0 10.54 4.72 10.54 10.54.01 5.82-4.71 10.54-10.54 10.54z" fill="#4d61fc" opacity=".04"/><path d="m1068.87 478.26c4.5 0 8.15-3.649 8.15-8.15s-3.65-8.15-8.15-8.15-8.15 3.649-8.15 8.15 3.65 8.15 8.15 8.15z" fill="#4d61fc"/><path d="m1426.45 591.62h-155.09c-3.91 0-7.07-3.17-7.07-7.08v-128.46c0-3.91 3.17-7.07 7.07-7.07h155.09c3.91 0 7.07 3.17 7.07 7.07v128.46c.01 3.91-3.16 7.08-7.07 7.08z" fill="#4d61fc"/><path d="m1426.45 591.62h-155.09c-3.91 0-7.07-3.17-7.07-7.08v-128.46c0-3.91 3.17-7.07 7.07-7.07h155.09c3.91 0 7.07 3.17 7.07 7.07v128.46c.01 3.91-3.16 7.08-7.07 7.08z" fill="#fff" opacity=".3"/><path d="m1419.8 591.62h-155.09c-3.91 0-7.07-3.17-7.07-7.08v-128.46c0-3.91 3.17-7.07 7.07-7.07h155.09c3.91 0 7.08 3.17 7.08 7.07v128.46c-.01 3.91-3.17 7.08-7.08 7.08z" fill="#4d61fc"/><path d="m1419.8 591.62h-155.09c-3.91 0-7.07-3.17-7.07-7.08v-128.46c0-3.91 3.17-7.07 7.07-7.07h155.09c3.91 0 7.08 3.17 7.08 7.07v128.46c-.01 3.91-3.17 7.08-7.08 7.08z" fill="#fff" opacity=".7"/><path d="m1387.02 575.21h-90.62c-5.82 0-10.54-4.72-10.54-10.54s4.72-10.54 10.54-10.54h90.62c5.82 0 10.54 4.72 10.54 10.54s-4.72 10.54-10.54 10.54z" fill="#4d61fc" opacity=".04"/><path d="m1278.74 478.26c4.5 0 8.15-3.649 8.15-8.15s-3.65-8.15-8.15-8.15-8.15 3.649-8.15 8.15 3.65 8.15 8.15 8.15z" fill="#4d61fc"/><path d="m825.08 359.421c-4-2.08-6.08-7.48-6.08-12.48 0-4.99-3.33-6.79-8.32-8.8s-9.57.21-12.89-6.72c-3.33-6.93.42-11.92-4.57-13.59s-2.08-3.33-10.4-2.49v51.56h46.57c.01.01-.31-5.4-4.31-7.48z" fill="#4d61fc"/><path d="m801.85 324.81s3.22-.31 4.26-1.87 2.29-4.68 1.35-6.55-4.68-2.49-5.61-2.49-3.43 2.18-2.81 4.06c.62 1.86.76 7.29 2.81 6.85z" fill="#4d61fc"/><path d="m807.79 332.811c1.65.42 3.52.42 4.55.83 1.04.42 3.12-1.52 3.74-2.22.62-.69.83-2.57-.83-3.19-.99-.37-2.63.25-4.05.36-.96.08-1.91-.39-2.18-.36-.68.06-2.88 4.17-1.23 4.58z" fill="#4d61fc"/><path d="m822.05 335.511s-3.95 1.73-2.91 2.63-.59 4.66 1.37 4.76c1.96.09 6.12.49 6.74-1.89s-2.09-4.25-5.2-5.5z" fill="#4d61fc"/><path d="m828.33 327.711c2.11.96 3.48.07 3.48-2.09 0-2.15.81-2.74-.24-2.74 0 0-4.18-.09-3.77 1.57.42 1.66-1.61 2.29.53 3.26z" fill="#4d61fc"/><path d="m861.96 352.481c-.48-.21-.93-.37-1.46-.46l.16-2.17c1.89.36 3.43 1.38 4.96 2.54.42.33 1.01-.12.81-.64-1.02-2.41-4.62-5.25-5.43-7.37l.17-3.16c.19-.2.33-.42.38-.74.12-.71-.37-1.4-1.1-1.49-1.74-.25-3.54-.72-4.35-1.03.18-1.16.85-3.29 1.22-4.55.13-.51-.01-1.15-.73-1.99-1.56-1.84-2.45-1.56-5.11-.51-2.26.9-4.78 2.82-6.25 4.74-.17.16-.35.37-.53.67-.49.78-.37 1.69.22 2.39.62.75 1.82 1.9 2.79 2.72 1.03.89 2.17 1.87 3.13 3.01-.78 1.22-3.1 3.86-5.13 5.95-.63.67-.62 1.72.01 2.34.16.17.38.31.6.36.57.21 1.29.1 1.75-.41.08-.06 1.66-1.69 3.21-3.47 2.66-3.1 3.76-4.8 2.68-6.23-1.09-1.39-2.37-2.58-3.47-3.54.97-.9 2.17-1.89 3.15-2.69-.15.65-.26 1.22-.26 1.65-.04.94.64 1.57 1.63 2.01.64.28 1.4.48 2.13.66s1.47.32 2.04.43l-.07 1.44c-1.7-.66-2.95-.55-4.15-.42.67.96.7 2.17.08 3.46-.48.98-1.29 2.14-2.92 3.99-1.59 1.86-3.23 3.51-3.29 3.54-.76.75-1.9 1.06-2.91.66-.16-.07-.64-.28-1-.64-1.08-1.1-1.08-2.81-.02-3.91 1.75-1.79 3.57-3.84 4.5-5.09-.82-.84-1.67-1.6-2.46-2.28-.89-.78-2.17-1.97-2.87-2.85-.62-.75-.87-1.67-.74-2.52-.68-.3-1.45-.6-2.34-.85-2.76-.85-5.62-.64-7.3-.3-.73.15-.82 1.21-.07 1.44 4.09 1.39 6.48 3.31 7.76 5.36l-2.06.99c-.67-.96-1.64-1.78-2.79-2.29-3.42-1.52-7.4.04-8.9 3.42-1.52 3.42.04 7.4 3.42 8.9 3.42 1.52 7.4-.04 8.9-3.42.71-1.59.75-3.29.25-4.84l2-.97c1.14 3.32-.03 6.6-.69 8.07-.21.48-.01.99.46 1.21l7.21 3.16c.48.21 1.01-.03 1.21-.46.72-1.73 2.87-5.48 6.32-6.28.69-.17 1.33-.22 1.97-.26l-.13 2.23c-2.35.24-4.46 1.68-5.49 3.98-1.52 3.42.04 7.4 3.42 8.9 3.42 1.52 7.4-.04 8.9-3.42 1.52-3.48-.04-7.46-3.42-8.97zm-29.84-1.42c-2.07-.92-2.95-3.31-2.05-5.34.92-2.07 3.31-2.95 5.34-2.05.56.25 1.02.6 1.39 1.05l-3.38 1.59c-.49.26-.7.83-.45 1.32.09.23.31.38.51.46.28.12.57.11.82-.02l3.47-1.69c.19.85.14 1.73-.24 2.56-.93 2.11-3.34 3.04-5.41 2.12zm25.44 11.32c-2.07-.92-2.95-3.31-2.05-5.34.55-1.23 1.62-2.04 2.88-2.29l-.24 4.18c-.04.41.21.81.57.97.12.05.2.09.34.1.55.05 1.03-.4 1.03-.92l.26-4.22c.18.03.34.1.53.19 2.07.92 2.95 3.31 2.05 5.34-.93 1.96-3.35 2.89-5.37 1.99z" fill="#4d61fc"/><path d="m860.15 332.44c1.922 0 3.48-1.558 3.48-3.48s-1.558-3.48-3.48-3.48-3.48 1.558-3.48 3.48 1.558 3.48 3.48 3.48z" fill="#4d61fc"/><g fill="#000" opacity=".15"><g opacity=".15"><path d="m825.08 359.421c-4-2.08-6.08-7.48-6.08-12.48 0-4.99-3.33-6.79-8.32-8.8s-9.57.21-12.89-6.72c-3.33-6.93.42-11.92-4.57-13.59s-2.08-3.33-10.4-2.49v51.56h46.57c.01.01-.31-5.4-4.31-7.48z" opacity=".15"/><path d="m801.85 324.81s3.22-.31 4.26-1.87 2.29-4.68 1.35-6.55-4.68-2.49-5.61-2.49-3.43 2.18-2.81 4.06c.62 1.86.76 7.29 2.81 6.85z" opacity=".15"/><path d="m807.79 332.811c1.65.42 3.52.42 4.55.83 1.04.42 3.12-1.52 3.74-2.22.62-.69.83-2.57-.83-3.19-.99-.37-2.63.25-4.05.36-.96.08-1.91-.39-2.18-.36-.68.06-2.88 4.17-1.23 4.58z" opacity=".15"/><path d="m822.05 335.511s-3.95 1.73-2.91 2.63-.59 4.66 1.37 4.76c1.96.09 6.12.49 6.74-1.89s-2.09-4.25-5.2-5.5z" opacity=".15"/><path d="m828.33 327.711c2.11.96 3.48.07 3.48-2.09 0-2.15.81-2.74-.24-2.74 0 0-4.18-.09-3.77 1.57.42 1.66-1.61 2.29.53 3.26z" opacity=".15"/></g><g opacity=".15"><path d="m861.96 352.481c-.48-.21-.93-.37-1.46-.46l.16-2.17c1.89.36 3.43 1.38 4.96 2.54.42.33 1.01-.12.81-.64-1.02-2.41-4.62-5.25-5.43-7.37l.17-3.16c.19-.2.33-.42.38-.74.12-.71-.37-1.4-1.1-1.49-1.74-.25-3.54-.72-4.35-1.03.18-1.16.85-3.29 1.22-4.55.13-.51-.01-1.15-.73-1.99-1.56-1.84-2.45-1.56-5.11-.51-2.26.9-4.78 2.82-6.25 4.74-.17.16-.35.37-.53.67-.49.78-.37 1.69.22 2.39.62.75 1.82 1.9 2.79 2.72 1.03.89 2.17 1.87 3.13 3.01-.78 1.22-3.1 3.86-5.13 5.95-.63.67-.62 1.72.01 2.34.16.17.38.31.6.36.57.21 1.29.1 1.75-.41.08-.06 1.66-1.69 3.21-3.47 2.66-3.1 3.76-4.8 2.68-6.23-1.09-1.39-2.37-2.58-3.47-3.54.97-.9 2.17-1.89 3.15-2.69-.15.65-.26 1.22-.26 1.65-.04.94.64 1.57 1.63 2.01.64.28 1.4.48 2.13.66s1.47.32 2.04.43l-.07 1.44c-1.7-.66-2.95-.55-4.15-.42.67.96.7 2.17.08 3.46-.48.98-1.29 2.14-2.92 3.99-1.59 1.86-3.23 3.51-3.29 3.54-.76.75-1.9 1.06-2.91.66-.16-.07-.64-.28-1-.64-1.08-1.1-1.08-2.81-.02-3.91 1.75-1.79 3.57-3.84 4.5-5.09-.82-.84-1.67-1.6-2.46-2.28-.89-.78-2.17-1.97-2.87-2.85-.62-.75-.87-1.67-.74-2.52-.68-.3-1.45-.6-2.34-.85-2.76-.85-5.62-.64-7.3-.3-.73.15-.82 1.21-.07 1.44 4.09 1.39 6.48 3.31 7.76 5.36l-2.06.99c-.67-.96-1.64-1.78-2.79-2.29-3.42-1.52-7.4.04-8.9 3.42-1.52 3.42.04 7.4 3.42 8.9 3.42 1.52 7.4-.04 8.9-3.42.71-1.59.75-3.29.25-4.84l2-.97c1.14 3.32-.03 6.6-.69 8.07-.21.48-.01.99.46 1.21l7.21 3.16c.48.21 1.01-.03 1.21-.46.72-1.73 2.87-5.48 6.32-6.28.69-.17 1.33-.22 1.97-.26l-.13 2.23c-2.35.24-4.46 1.68-5.49 3.98-1.52 3.42.04 7.4 3.42 8.9 3.42 1.52 7.4-.04 8.9-3.42 1.52-3.48-.04-7.46-3.42-8.97zm-29.84-1.42c-2.07-.92-2.95-3.31-2.05-5.34.92-2.07 3.31-2.95 5.34-2.05.56.25 1.02.6 1.39 1.05l-3.38 1.59c-.49.26-.7.83-.45 1.32.09.23.31.38.51.46.28.12.57.11.82-.02l3.47-1.69c.19.85.14 1.73-.24 2.56-.93 2.11-3.34 3.04-5.41 2.12zm25.44 11.32c-2.07-.92-2.95-3.31-2.05-5.34.55-1.23 1.62-2.04 2.88-2.29l-.24 4.18c-.04.41.21.81.57.97.12.05.2.09.34.1.55.05 1.03-.4 1.03-.92l.26-4.22c.18.03.34.1.53.19 2.07.92 2.95 3.31 2.05 5.34-.93 1.96-3.35 2.89-5.37 1.99z" opacity=".15"/><path d="m860.15 332.44c1.922 0 3.48-1.558 3.48-3.48s-1.558-3.48-3.48-3.48-3.48 1.558-3.48 3.48 1.558 3.48 3.48 3.48z" opacity=".15"/></g></g><path d="m1016.25 316.16c-.25 1.31-.73 2.55-1.41 3.65 0 0 .2-3.33-3.99-6.34-3.83-2.75-3.36-5.71-2.89-9.01-4.25 1.4-8.84 9.92-7.67 15.8-1.25-1.29-2.18-2.89-2.67-4.68-1.08 1.68-1.7 3.68-1.7 5.83 0 5.99 4.85 10.84 10.84 10.84s10.84-4.85 10.84-10.84c-.01-1.91-.49-3.7-1.35-5.25zm-9.49 13.31c-2.91 0-5.26-2.36-5.26-5.26 0-1.04.3-2.01.83-2.83.24.87.69 1.64 1.3 2.27-.57-2.86 1.66-6.99 3.72-7.67-.23 1.6-.46 3.04 1.4 4.38 2.04 1.46 1.94 3.08 1.94 3.08.33-.53.56-1.13.68-1.77.42.75.65 1.62.65 2.54 0 2.9-2.36 5.26-5.26 5.26z" fill="#4d61fc"/><path d="m1042.56 331.09.91 2.38c-3.05.12-5.61.25-7.39.85-2.65 1.02-3.36 4.05-6.49 4.72 0 0-13.4-2.74-14.25-4.37-1.23-.01-2.61.05-4.13.25-4.79.54-9.01 2.75-11.35 4.39-1.02.72-.46 2.39.85 2.25 7.18-.59 12.1.76 15.41 3.03l-2.49 2.88c-1.66-1.03-3.68-1.63-5.78-1.65-6.23-.05-11.28 4.97-11.33 11.14-.05 6.23 4.97 11.28 11.14 11.33 6.23.05 11.28-4.97 11.33-11.14.03-2.9-1.04-5.52-2.83-7.56l2.42-2.81c3.95 4.31 4.33 10.11 4.31 12.79-.01.87.64 1.53 1.51 1.54l13.12.04c.87.01 1.53-.71 1.54-1.51-.05-3.12.74-10.29 5.48-13.8.95-.72 1.9-1.22 2.84-1.71l1.27 3.49c-3.42 1.93-5.7 5.53-5.74 9.73-.05 6.23 4.97 11.28 11.14 11.33 6.23.05 11.28-4.97 11.33-11.14-.02-6.31-5.05-11.35-11.21-11.41-.87-.01-1.67.06-2.54.27l-1.2-3.42c3.12-.7 6.16-.16 9.27.59.87.23 1.46-.86.81-1.52-3.16-3-10.54-4.95-13.2-7.65l-1.65-4.51c-.31-.85-1.24-1.29-2.09-.99-.89.34-1.34 1.32-1.01 2.19zm-34.94 32.72c-3.77-.03-6.71-3.1-6.68-6.8.03-3.77 3.1-6.71 6.8-6.68 1.01.01 1.95.23 2.82.68l-4.1 4.68c-.59.72-.52 1.73.2 2.32.29.29.72.37 1.08.37.51 0 .94-.21 1.24-.57l4.17-4.89c.86 1.17 1.35 2.55 1.34 4.07-.03 3.84-3.1 6.85-6.87 6.82zm46.38.41c-3.77-.03-6.71-3.1-6.68-6.8.02-2.25 1.12-4.19 2.87-5.41l2.41 6.54c.21.65.86 1.09 1.51 1.1.22 0 .36 0 .58-.07.87-.28 1.32-1.29.96-2.09l-2.41-6.62c.29-.07.58-.07.94-.06 3.77.03 6.71 3.1 6.68 6.8-.09 3.62-3.16 6.64-6.86 6.61z" fill="#4d61fc"/><path d="m1048 332.14h-3.9v-3.3h3.9c.91 0 1.65.74 1.65 1.65s-.74 1.65-1.65 1.65z" fill="#4d61fc"/><g fill="#000" opacity=".15"><path d="m1016.25 316.16c-.25 1.31-.73 2.55-1.41 3.65 0 0 .2-3.33-3.99-6.34-3.83-2.75-3.36-5.71-2.89-9.01-4.25 1.4-8.84 9.92-7.67 15.8-1.25-1.29-2.18-2.89-2.67-4.68-1.08 1.68-1.7 3.68-1.7 5.83 0 5.99 4.85 10.84 10.84 10.84s10.84-4.85 10.84-10.84c-.01-1.91-.49-3.7-1.35-5.25zm-9.49 13.31c-2.91 0-5.26-2.36-5.26-5.26 0-1.04.3-2.01.83-2.83.24.87.69 1.64 1.3 2.27-.57-2.86 1.66-6.99 3.72-7.67-.23 1.6-.46 3.04 1.4 4.38 2.04 1.46 1.94 3.08 1.94 3.08.33-.53.56-1.13.68-1.77.42.75.65 1.62.65 2.54 0 2.9-2.36 5.26-5.26 5.26z" opacity=".15"/><g opacity=".15"><path d="m1042.56 331.09.91 2.38c-3.05.12-5.61.25-7.39.85-2.65 1.02-3.36 4.05-6.49 4.72 0 0-13.4-2.74-14.25-4.37-1.23-.01-2.61.05-4.13.25-4.79.54-9.01 2.75-11.35 4.39-1.02.72-.46 2.39.85 2.25 7.18-.59 12.1.76 15.41 3.03l-2.49 2.88c-1.66-1.03-3.68-1.63-5.78-1.65-6.23-.05-11.28 4.97-11.33 11.14-.05 6.23 4.97 11.28 11.14 11.33 6.23.05 11.28-4.97 11.33-11.14.03-2.9-1.04-5.52-2.83-7.56l2.42-2.81c3.95 4.31 4.33 10.11 4.31 12.79-.01.87.64 1.53 1.51 1.54l13.12.04c.87.01 1.53-.71 1.54-1.51-.05-3.12.74-10.29 5.48-13.8.95-.72 1.9-1.22 2.84-1.71l1.27 3.49c-3.42 1.93-5.7 5.53-5.74 9.73-.05 6.23 4.97 11.28 11.14 11.33 6.23.05 11.28-4.97 11.33-11.14-.02-6.31-5.05-11.35-11.21-11.41-.87-.01-1.67.06-2.54.27l-1.2-3.42c3.12-.7 6.16-.16 9.27.59.87.23 1.46-.86.81-1.52-3.16-3-10.54-4.95-13.2-7.65l-1.65-4.51c-.31-.85-1.24-1.29-2.09-.99-.89.34-1.34 1.32-1.01 2.19zm-34.94 32.72c-3.77-.03-6.71-3.1-6.68-6.8.03-3.77 3.1-6.71 6.8-6.68 1.01.01 1.95.23 2.82.68l-4.1 4.68c-.59.72-.52 1.73.2 2.32.29.29.72.37 1.08.37.51 0 .94-.21 1.24-.57l4.17-4.89c.86 1.17 1.35 2.55 1.34 4.07-.03 3.84-3.1 6.85-6.87 6.82zm46.38.41c-3.77-.03-6.71-3.1-6.68-6.8.02-2.25 1.12-4.19 2.87-5.41l2.41 6.54c.21.65.86 1.09 1.51 1.1.22 0 .36 0 .58-.07.87-.28 1.32-1.29.96-2.09l-2.41-6.62c.29-.07.58-.07.94-.06 3.77.03 6.71 3.1 6.68 6.8-.09 3.62-3.16 6.64-6.86 6.61z" opacity=".0225"/><path d="m1048 332.14h-3.9v-3.3h3.9c.91 0 1.65.74 1.65 1.65s-.74 1.65-1.65 1.65z" opacity=".0225"/></g></g><path d="m1237.31 347.94c-.6-.27-1.18-.46-1.85-.58l.2-2.74c2.38.46 4.33 1.75 6.27 3.21.54.42 1.27-.16 1.02-.81-1.29-3.04-5.83-6.63-6.86-9.31l.21-4c.23-.26.42-.54.47-.93.16-.89-.47-1.77-1.39-1.88-2.2-.32-4.47-.91-5.5-1.3.23-1.46 1.07-4.16 1.54-5.75.17-.65-.02-1.45-.92-2.52-1.97-2.32-3.09-1.98-6.45-.65-2.85 1.14-6.04 3.57-7.9 5.99-.21.21-.45.46-.68.84-.62.99-.47 2.14.28 3.01.78.95 2.3 2.41 3.52 3.43 1.31 1.12 2.74 2.36 3.96 3.81-.99 1.55-3.91 4.87-6.48 7.52-.8.85-.79 2.18.01 2.95.21.21.49.4.76.46.73.26 1.63.12 2.22-.52.09-.08 2.09-2.14 4.06-4.39 3.37-3.92 4.75-6.07 3.39-7.88-1.38-1.76-3-3.26-4.38-4.48 1.23-1.14 2.75-2.39 3.98-3.4-.18.82-.32 1.54-.32 2.08-.05 1.18.8 1.98 2.06 2.54.8.36 1.77.61 2.69.84s1.86.41 2.58.55l-.09 1.82c-2.15-.84-3.72-.69-5.24-.53.84 1.22.89 2.74.1 4.38-.61 1.23-1.63 2.71-3.69 5.04-2.01 2.35-4.08 4.44-4.15 4.47-.97.95-2.4 1.34-3.68.83-.2-.09-.8-.36-1.27-.8-1.37-1.39-1.37-3.56-.03-4.94 2.21-2.26 4.51-4.85 5.69-6.43-1.03-1.06-2.11-2.02-3.11-2.89-1.13-.98-2.74-2.48-3.63-3.6-.78-.95-1.1-2.12-.93-3.18-.85-.38-1.83-.75-2.95-1.07-3.49-1.07-7.1-.81-9.22-.37-.93.19-1.04 1.52-.09 1.82 5.17 1.76 8.18 4.18 9.8 6.77l-2.6 1.25c-.84-1.22-2.07-2.24-3.53-2.89-4.32-1.92-9.35.05-11.25 4.32-1.92 4.32.05 9.35 4.32 11.25 4.32 1.92 9.35-.05 11.25-4.32.89-2.01.95-4.15.32-6.12l2.53-1.22c1.44 4.19-.04 8.34-.87 10.2-.27.6-.02 1.26.59 1.52l9.11 4c.6.27 1.28-.03 1.52-.59.91-2.18 3.63-6.93 7.98-7.94.88-.21 1.69-.27 2.49-.33l-.17 2.81c-2.96.31-5.64 2.12-6.93 5.04-1.92 4.32.05 9.35 4.32 11.25 4.32 1.92 9.35-.05 11.25-4.32 1.91-4.39-.06-9.42-4.33-11.32zm-37.7-1.8c-2.61-1.16-3.73-4.19-2.59-6.75 1.16-2.61 4.19-3.73 6.75-2.59.7.31 1.29.75 1.76 1.32l-4.26 2.01c-.63.32-.89 1.05-.56 1.67.11.29.39.47.64.59.35.16.72.14 1.03-.02l4.38-2.14c.24 1.07.17 2.18-.3 3.24-1.19 2.66-4.24 3.83-6.85 2.67zm32.14 14.3c-2.61-1.16-3.73-4.19-2.59-6.75.69-1.56 2.05-2.58 3.63-2.89l-.3 5.28c-.05.52.27 1.02.72 1.22.15.07.25.11.42.13.69.07 1.31-.5 1.3-1.17l.33-5.33c.22.04.42.13.68.24 2.61 1.16 3.73 4.19 2.59 6.75-1.18 2.49-4.22 3.66-6.78 2.52z" fill="#4d61fc"/><path d="m1235.02 322.62c2.43 0 4.4-1.97 4.4-4.4s-1.97-4.4-4.4-4.4-4.4 1.97-4.4 4.4 1.97 4.4 4.4 4.4z" fill="#4d61fc"/><path d="m1247.12 359.261c1.9 4.27 6.93 6.24 11.25 4.32 4.27-1.9 6.24-6.93 4.32-11.25-1.3-2.91-3.97-4.73-6.93-5.04l-.17-2.81c.81.06 1.62.12 2.49.33 4.36 1.01 7.07 5.75 7.98 7.94.25.55.92.85 1.52.59l9.11-4c.6-.27.85-.92.59-1.52-.83-1.86-2.31-6.01-.87-10.2l2.53 1.22c-.63 1.96-.58 4.11.32 6.12 1.9 4.27 6.93 6.24 11.25 4.32 4.27-1.9 6.24-6.93 4.32-11.25-1.9-4.27-6.93-6.24-11.25-4.32-1.46.65-2.68 1.68-3.53 2.89l-2.6-1.25c1.62-2.58 4.63-5.01 9.8-6.77.95-.3.84-1.64-.09-1.82-2.12-.44-5.73-.7-9.22.37-1.12.32-2.1.69-2.95 1.07.17 1.07-.15 2.23-.93 3.18-.89 1.12-2.5 2.62-3.63 3.6-1 .87-2.07 1.83-3.11 2.89 1.18 1.58 3.48 4.17 5.69 6.43 1.34 1.39 1.34 3.55-.03 4.94-.46.45-1.07.71-1.27.8-1.28.51-2.71.12-3.68-.83-.07-.03-2.14-2.11-4.15-4.47-2.06-2.33-3.08-3.8-3.69-5.04-.79-1.63-.74-3.16.1-4.38-1.52-.17-3.09-.31-5.24.53l-.09-1.82c.72-.14 1.66-.32 2.58-.55s1.89-.48 2.69-.84c1.26-.56 2.1-1.36 2.06-2.54 0-.54-.14-1.26-.32-2.08 1.23 1.01 2.75 2.26 3.98 3.4-1.38 1.22-3 2.72-4.38 4.48-1.36 1.81.02 3.96 3.39 7.88 1.97 2.25 3.96 4.31 4.06 4.39.59.64 1.49.78 2.22.52.27-.06.55-.25.76-.46.8-.78.81-2.1.01-2.95-2.56-2.65-5.49-5.98-6.48-7.52 1.22-1.45 2.65-2.69 3.96-3.81 1.23-1.03 2.74-2.48 3.52-3.43.75-.88.9-2.03.28-3.01-.23-.38-.46-.64-.68-.84-1.86-2.42-5.05-4.85-7.9-5.99-3.36-1.33-4.48-1.68-6.45.65-.91 1.07-1.09 1.87-.92 2.52.47 1.6 1.31 4.29 1.54 5.75-1.03.4-3.29.98-5.5 1.3-.92.11-1.55.99-1.39 1.88.06.4.24.68.47.93l.21 4c-1.03 2.68-5.57 6.27-6.86 9.31-.25.65.49 1.23 1.02.81 1.94-1.46 3.89-2.75 6.27-3.21l.2 2.74c-.67.12-1.24.31-1.85.58-4.25 1.9-6.22 6.93-4.33 11.32zm35.21-15.79c-.47-1.05-.54-2.16-.3-3.24l4.38 2.14c.31.16.68.18 1.03.02.25-.11.53-.3.64-.59.32-.63.06-1.35-.56-1.67l-4.26-2.01c.47-.57 1.05-1.01 1.76-1.32 2.56-1.14 5.59-.02 6.75 2.59 1.14 2.56.02 5.59-2.59 6.75-2.62 1.16-5.67-.01-6.85-2.67zm-32.07 14.45c-1.14-2.56-.02-5.59 2.59-6.75.25-.11.45-.2.68-.24l.33 5.33c-.01.66.61 1.23 1.3 1.17.17-.02.27-.06.42-.13.45-.2.77-.7.72-1.22l-.3-5.28c1.58.32 2.94 1.34 3.63 2.89 1.14 2.56.02 5.59-2.59 6.75-2.56 1.14-5.61-.03-6.78-2.52z" fill="#4d61fc"/><path d="m1253.76 322.62c2.43 0 4.4-1.97 4.4-4.4s-1.97-4.4-4.4-4.4-4.4 1.97-4.4 4.4 1.97 4.4 4.4 4.4z" fill="#4d61fc"/><path d="m1237.01 366.9c-.16.02-.29.11-.37.25l-1.33 2.27-.01-2.54c0-.14-.06-.28-.17-.38s-.25-.14-.39-.13l-1.12.11c-.07.01-.14.03-.2.07-.17.1-.28.29-.25.49.03.28.28.48.56.46l.56-.06.01 3.84c0 .23.16.43.38.49s.46-.04.57-.23l1.95-3.32 2.77 2.75c.16.16.41.19.61.08s.3-.34.24-.56l-.94-3.83 3.68-.1c.23-.01.43-.17.48-.4s-.06-.46-.26-.57l-3.32-1.71.6-.56c.21-.19.22-.51.03-.72s-.5-.23-.72-.03l-1.14 1.06c-.12.11-.18.28-.16.44s.12.31.27.38l2.2 1.13-2.33.06c-.15 0-.3.08-.39.2s-.13.28-.09.43l.66 2.69-1.95-1.94c-.11-.09-.27-.14-.43-.12z" fill="#4d61fc"/><path d="m1251.44 367.041-1.95 1.94.66-2.69c.04-.15 0-.311-.09-.431s-.24-.199-.39-.199l-2.33-.06 2.2-1.131c.15-.08.25-.22.27-.38s-.04-.33-.16-.44l-1.14-1.06c-.22-.2-.53-.18-.72.03s-.18.53.03.72l.6.56-3.32 1.71c-.21.11-.32.34-.26.57.05.23.25.39.48.4l3.68.1-.94 3.831c-.05.22.05.45.24.56.2.11.45.079.61-.081l2.77-2.75 1.95 3.32c.12.2.35.301.57.231.22-.06.38-.261.38-.491l.01-3.84.56.06c.28.03.53-.18.56-.46.02-.21-.09-.399-.25-.489-.06-.03-.13-.061-.2-.071l-1.12-.109c-.14-.01-.29.029-.39.129-.11.1-.17.23-.17.38l-.01 2.54-1.33-2.269c-.08-.14-.22-.23-.37-.25-.16-.04-.32.01-.43.12z" fill="#4d61fc"/><g fill="#000" opacity=".15"><g opacity=".15"><path d="m1237.31 347.94c-.6-.27-1.18-.46-1.85-.58l.2-2.74c2.38.46 4.33 1.75 6.27 3.21.54.42 1.27-.16 1.02-.81-1.29-3.04-5.83-6.63-6.86-9.31l.21-4c.23-.26.42-.54.47-.93.16-.89-.47-1.77-1.39-1.88-2.2-.32-4.47-.91-5.5-1.3.23-1.46 1.07-4.16 1.54-5.75.17-.65-.02-1.45-.92-2.52-1.97-2.32-3.09-1.98-6.45-.65-2.85 1.14-6.04 3.57-7.9 5.99-.21.21-.45.46-.68.84-.62.99-.47 2.14.28 3.01.78.95 2.3 2.41 3.52 3.43 1.31 1.12 2.74 2.36 3.96 3.81-.99 1.55-3.91 4.87-6.48 7.52-.8.85-.79 2.18.01 2.95.21.21.49.4.76.46.73.26 1.63.12 2.22-.52.09-.08 2.09-2.14 4.06-4.39 3.37-3.92 4.75-6.07 3.39-7.88-1.38-1.76-3-3.26-4.38-4.48 1.23-1.14 2.75-2.39 3.98-3.4-.18.82-.32 1.54-.32 2.08-.05 1.18.8 1.98 2.06 2.54.8.36 1.77.61 2.69.84s1.86.41 2.58.55l-.09 1.82c-2.15-.84-3.72-.69-5.24-.53.84 1.22.89 2.74.1 4.38-.61 1.23-1.63 2.71-3.69 5.04-2.01 2.35-4.08 4.44-4.15 4.47-.97.95-2.4 1.34-3.68.83-.2-.09-.8-.36-1.27-.8-1.37-1.39-1.37-3.56-.03-4.94 2.21-2.26 4.51-4.85 5.69-6.43-1.03-1.06-2.11-2.02-3.11-2.89-1.13-.98-2.74-2.48-3.63-3.6-.78-.95-1.1-2.12-.93-3.18-.85-.38-1.83-.75-2.95-1.07-3.49-1.07-7.1-.81-9.22-.37-.93.19-1.04 1.52-.09 1.82 5.17 1.76 8.18 4.18 9.8 6.77l-2.6 1.25c-.84-1.22-2.07-2.24-3.53-2.89-4.32-1.92-9.35.05-11.25 4.32-1.92 4.32.05 9.35 4.32 11.25 4.32 1.92 9.35-.05 11.25-4.32.89-2.01.95-4.15.32-6.12l2.53-1.22c1.44 4.19-.04 8.34-.87 10.2-.27.6-.02 1.26.59 1.52l9.11 4c.6.27 1.28-.03 1.52-.59.91-2.18 3.63-6.93 7.98-7.94.88-.21 1.69-.27 2.49-.33l-.17 2.81c-2.96.31-5.64 2.12-6.93 5.04-1.92 4.32.05 9.35 4.32 11.25 4.32 1.92 9.35-.05 11.25-4.32 1.91-4.39-.06-9.42-4.33-11.32zm-37.7-1.8c-2.61-1.16-3.73-4.19-2.59-6.75 1.16-2.61 4.19-3.73 6.75-2.59.7.31 1.29.75 1.76 1.32l-4.26 2.01c-.63.32-.89 1.05-.56 1.67.11.29.39.47.64.59.35.16.72.14 1.03-.02l4.38-2.14c.24 1.07.17 2.18-.3 3.24-1.19 2.66-4.24 3.83-6.85 2.67zm32.14 14.3c-2.61-1.16-3.73-4.19-2.59-6.75.69-1.56 2.05-2.58 3.63-2.89l-.3 5.28c-.05.52.27 1.02.72 1.22.15.07.25.11.42.13.69.07 1.31-.5 1.3-1.17l.33-5.33c.22.04.42.13.68.24 2.61 1.16 3.73 4.19 2.59 6.75-1.18 2.49-4.22 3.66-6.78 2.52z" opacity=".15"/><path d="m1235.02 322.62c2.43 0 4.4-1.97 4.4-4.4s-1.97-4.4-4.4-4.4-4.4 1.97-4.4 4.4 1.97 4.4 4.4 4.4z" opacity=".15"/></g><g opacity=".15"><path d="m1247.12 359.261c1.9 4.27 6.93 6.24 11.25 4.32 4.27-1.9 6.24-6.93 4.32-11.25-1.3-2.91-3.97-4.73-6.93-5.04l-.17-2.81c.81.06 1.62.12 2.49.33 4.36 1.01 7.07 5.75 7.98 7.94.25.55.92.85 1.52.59l9.11-4c.6-.27.85-.92.59-1.52-.83-1.86-2.31-6.01-.87-10.2l2.53 1.22c-.63 1.96-.58 4.11.32 6.12 1.9 4.27 6.93 6.24 11.25 4.32 4.27-1.9 6.24-6.93 4.32-11.25-1.9-4.27-6.93-6.24-11.25-4.32-1.46.65-2.68 1.68-3.53 2.89l-2.6-1.25c1.62-2.58 4.63-5.01 9.8-6.77.95-.3.84-1.64-.09-1.82-2.12-.44-5.73-.7-9.22.37-1.12.32-2.1.69-2.95 1.07.17 1.07-.15 2.23-.93 3.18-.89 1.12-2.5 2.62-3.63 3.6-1 .87-2.07 1.83-3.11 2.89 1.18 1.58 3.48 4.17 5.69 6.43 1.34 1.39 1.34 3.55-.03 4.94-.46.45-1.07.71-1.27.8-1.28.51-2.71.12-3.68-.83-.07-.03-2.14-2.11-4.15-4.47-2.06-2.33-3.08-3.8-3.69-5.04-.79-1.63-.74-3.16.1-4.38-1.52-.17-3.09-.31-5.24.53l-.09-1.82c.72-.14 1.66-.32 2.58-.55s1.89-.48 2.69-.84c1.26-.56 2.1-1.36 2.06-2.54 0-.54-.14-1.26-.32-2.08 1.23 1.01 2.75 2.26 3.98 3.4-1.38 1.22-3 2.72-4.38 4.48-1.36 1.81.02 3.96 3.39 7.88 1.97 2.25 3.96 4.31 4.06 4.39.59.64 1.49.78 2.22.52.27-.06.55-.25.76-.46.8-.78.81-2.1.01-2.95-2.56-2.65-5.49-5.98-6.48-7.52 1.22-1.45 2.65-2.69 3.96-3.81 1.23-1.03 2.74-2.48 3.52-3.43.75-.88.9-2.03.28-3.01-.23-.38-.46-.64-.68-.84-1.86-2.42-5.05-4.85-7.9-5.99-3.36-1.33-4.48-1.68-6.45.65-.91 1.07-1.09 1.87-.92 2.52.47 1.6 1.31 4.29 1.54 5.75-1.03.4-3.29.98-5.5 1.3-.92.11-1.55.99-1.39 1.88.06.4.24.68.47.93l.21 4c-1.03 2.68-5.57 6.27-6.86 9.31-.25.65.49 1.23 1.02.81 1.94-1.46 3.89-2.75 6.27-3.21l.2 2.74c-.67.12-1.24.31-1.85.58-4.25 1.9-6.22 6.93-4.33 11.32zm35.21-15.79c-.47-1.05-.54-2.16-.3-3.24l4.38 2.14c.31.16.68.18 1.03.02.25-.11.53-.3.64-.59.32-.63.06-1.35-.56-1.67l-4.26-2.01c.47-.57 1.05-1.01 1.76-1.32 2.56-1.14 5.59-.02 6.75 2.59 1.14 2.56.02 5.59-2.59 6.75-2.62 1.16-5.67-.01-6.85-2.67zm-32.07 14.45c-1.14-2.56-.02-5.59 2.59-6.75.25-.11.45-.2.68-.24l.33 5.33c-.01.66.61 1.23 1.3 1.17.17-.02.27-.06.42-.13.45-.2.77-.7.72-1.22l-.3-5.28c1.58.32 2.94 1.34 3.63 2.89 1.14 2.56.02 5.59-2.59 6.75-2.56 1.14-5.61-.03-6.78-2.52z" opacity=".15"/><path d="m1253.76 322.62c2.43 0 4.4-1.97 4.4-4.4s-1.97-4.4-4.4-4.4-4.4 1.97-4.4 4.4 1.97 4.4 4.4 4.4z" opacity=".15"/></g></g><path d="m1237.01 366.9c-.16.02-.29.11-.37.25l-1.33 2.27-.01-2.54c0-.14-.06-.28-.17-.38s-.25-.14-.39-.13l-1.12.11c-.07.01-.14.03-.2.07-.17.1-.28.29-.25.49.03.28.28.48.56.46l.56-.06.01 3.84c0 .23.16.43.38.49s.46-.04.57-.23l1.95-3.32 2.77 2.75c.16.16.41.19.61.08s.3-.34.24-.56l-.94-3.83 3.68-.1c.23-.01.43-.17.48-.4s-.06-.46-.26-.57l-3.32-1.71.6-.56c.21-.19.22-.51.03-.72s-.5-.23-.72-.03l-1.14 1.06c-.12.11-.18.28-.16.44s.12.31.27.38l2.2 1.13-2.33.06c-.15 0-.3.08-.39.2s-.13.28-.09.43l.66 2.69-1.95-1.94c-.11-.09-.27-.14-.43-.12z" fill="#000" opacity=".15"/><path d="m1251.44 367.041-1.95 1.94.66-2.69c.04-.15 0-.311-.09-.431s-.24-.199-.39-.199l-2.33-.06 2.2-1.131c.15-.08.25-.22.27-.38s-.04-.33-.16-.44l-1.14-1.06c-.22-.2-.53-.18-.72.03s-.18.53.03.72l.6.56-3.32 1.71c-.21.11-.32.34-.26.57.05.23.25.39.48.4l3.68.1-.94 3.831c-.05.22.05.45.24.56.2.11.45.079.61-.081l2.77-2.75 1.95 3.32c.12.2.35.301.57.231.22-.06.38-.261.38-.491l.01-3.84.56.06c.28.03.53-.18.56-.46.02-.21-.09-.399-.25-.489-.06-.03-.13-.061-.2-.071l-1.12-.109c-.14-.01-.29.029-.39.129-.11.1-.17.23-.17.38l-.01 2.54-1.33-2.269c-.08-.14-.22-.23-.37-.25-.16-.04-.32.01-.43.12z" fill="#000" opacity=".15"/><path d="m919.67 516.51c-.6-.27-1.18-.46-1.85-.58l.2-2.74c2.38.46 4.33 1.75 6.27 3.21.54.42 1.27-.16 1.02-.81-1.29-3.04-5.83-6.63-6.86-9.31l.21-4c.23-.26.42-.54.47-.93.16-.89-.47-1.77-1.39-1.88-2.2-.32-4.47-.91-5.5-1.3.23-1.46 1.07-4.16 1.54-5.75.17-.65-.02-1.45-.92-2.52-1.97-2.32-3.09-1.98-6.45-.65-2.85 1.14-6.04 3.57-7.9 5.99-.21.21-.45.46-.68.84-.62.99-.47 2.14.28 3.01.78.95 2.3 2.41 3.52 3.43 1.31 1.12 2.74 2.36 3.96 3.81-.99 1.55-3.91 4.87-6.48 7.52-.8.85-.79 2.18.01 2.95.21.21.49.4.76.46.73.26 1.63.12 2.22-.52.09-.08 2.09-2.14 4.06-4.39 3.37-3.92 4.75-6.07 3.39-7.88-1.38-1.76-3-3.26-4.38-4.48 1.23-1.14 2.75-2.39 3.98-3.4-.18.82-.32 1.54-.32 2.08-.05 1.18.8 1.98 2.06 2.54.8.36 1.77.61 2.69.84s1.86.41 2.58.55l-.09 1.82c-2.15-.84-3.72-.69-5.24-.53.84 1.22.89 2.74.1 4.38-.61 1.23-1.63 2.71-3.69 5.04-2.01 2.35-4.08 4.44-4.15 4.47-.97.95-2.4 1.34-3.68.83-.2-.09-.8-.36-1.27-.8-1.37-1.39-1.37-3.56-.02-4.94 2.21-2.26 4.51-4.85 5.69-6.43-1.03-1.06-2.11-2.02-3.11-2.89-1.13-.98-2.74-2.48-3.63-3.6-.78-.95-1.1-2.12-.93-3.18-.85-.38-1.83-.75-2.95-1.07-3.49-1.07-7.1-.81-9.22-.37-.93.19-1.04 1.52-.09 1.82 5.17 1.76 8.18 4.18 9.8 6.77l-2.6 1.25c-.84-1.22-2.07-2.24-3.53-2.89-4.32-1.92-9.35.05-11.25 4.32-1.92 4.32.05 9.35 4.32 11.25 4.32 1.92 9.35-.05 11.25-4.32.89-2.01.95-4.15.32-6.12l2.53-1.22c1.44 4.19-.04 8.34-.87 10.2-.27.6-.02 1.26.59 1.52l9.11 4c.6.27 1.28-.03 1.52-.59.91-2.18 3.63-6.93 7.98-7.94.88-.21 1.69-.27 2.49-.33l-.17 2.81c-2.96.31-5.64 2.12-6.93 5.03-1.92 4.32.05 9.35 4.32 11.25 4.32 1.92 9.35-.05 11.25-4.32 1.9-4.39-.07-9.41-4.34-11.31zm-37.7-1.81c-2.61-1.16-3.73-4.19-2.59-6.75 1.16-2.61 4.19-3.73 6.75-2.59.7.31 1.29.75 1.76 1.32l-4.26 2.01c-.63.32-.89 1.05-.56 1.67.11.29.39.47.64.59.35.16.72.14 1.03-.02l4.38-2.14c.24 1.07.17 2.18-.3 3.24-1.19 2.67-4.23 3.84-6.85 2.67zm32.14 14.31c-2.61-1.16-3.73-4.19-2.59-6.75.69-1.56 2.05-2.58 3.63-2.89l-.3 5.28c-.05.52.27 1.02.72 1.22.15.07.25.11.42.13.69.07 1.31-.5 1.3-1.17l.33-5.33c.22.04.42.13.68.24 2.61 1.16 3.73 4.19 2.59 6.75-1.17 2.49-4.22 3.66-6.78 2.52z" fill="#4d61fc"/><path d="m917.38 491.191c2.431 0 4.401-1.97 4.401-4.4s-1.97-4.4-4.401-4.4c-2.43 0-4.4 1.97-4.4 4.4s1.97 4.4 4.4 4.4z" fill="#4d61fc"/><path d="m953.59 531.761c.3-.17.57-.38.74-.73.43-.8.11-1.83-.73-2.22-1.99-1-3.96-2.27-4.81-2.97.68-1.32 2.32-3.61 3.27-4.98.36-.56.44-1.38-.09-2.68-1.14-2.83-2.31-2.85-5.92-2.64-3.07.18-6.86 1.48-9.38 3.2-.27.13-.57.3-.91.59-.9.74-1.12 1.88-.68 2.95.44 1.15 1.42 3.01 2.26 4.37.89 1.48 1.86 3.1 2.56 4.86-1.42 1.16-5.25 3.39-8.52 5.1-1.02.55-1.43 1.82-.92 2.8.13.27.34.53.58.67.61.48 1.51.63 2.27.21.11-.04 2.66-1.37 5.24-2.89 4.43-2.66 6.42-4.27 5.69-6.41-.76-2.1-1.82-4.04-2.75-5.63 1.52-.69 3.36-1.4 4.85-1.98-.43.72-.79 1.36-.96 1.87-.42 1.11.14 2.13 1.15 3.06.65.59 1.49 1.14 2.29 1.64.8.51 1.64.97 2.28 1.33 1.47.94 2.49.48 2.49.48z" fill="#4d61fc"/><path d="m957.241 521.051c2.43 0 4.4-1.97 4.4-4.4s-1.97-4.4-4.4-4.4-4.4 1.97-4.4 4.4 1.97 4.4 4.4 4.4z" fill="#4d61fc"/><path d="m928.09 527.531 2.13 1.74-2.74-.37c-.15-.02-.31.029-.42.139-.11.1-.17.261-.16.411l.19 2.32-1.36-2.07c-.09-.14-.24-.221-.41-.231-.17 0-.32.07-.42.2l-.93 1.24c-.17.24-.12.55.1.71.23.17.55.121.71-.099l.49-.661 2.06 3.12c.13.19.37.28.59.2s.36-.29.34-.52l-.3-3.67 3.91.52c.23.03.44-.089.53-.299s.03-.451-.15-.601l-3.03-2.459 3.09-2.291c.19-.14.26-.38.17-.6-.08-.21-.3-.35-.53-.32l-3.82.401v-.56c0-.28-.23-.51-.51-.51-.21 0-.39.13-.46.31-.03.06-.04.129-.04.209l.01 1.12c0 .14.06.28.17.38s.25.14.39.13l2.52-.269-2.12 1.569c-.13.09-.2.24-.21.4.02.16.09.311.21.411z" fill="#4d61fc"/><g fill="#000" opacity=".15"><g opacity=".15"><g opacity=".15"><path d="m919.67 516.51c-.6-.27-1.18-.46-1.85-.58l.2-2.74c2.38.46 4.33 1.75 6.27 3.21.54.42 1.27-.16 1.02-.81-1.29-3.04-5.83-6.63-6.86-9.31l.21-4c.23-.26.42-.54.47-.93.16-.89-.47-1.77-1.39-1.88-2.2-.32-4.47-.91-5.5-1.3.23-1.46 1.07-4.16 1.54-5.75.17-.65-.02-1.45-.92-2.52-1.97-2.32-3.09-1.98-6.45-.65-2.85 1.14-6.04 3.57-7.9 5.99-.21.21-.45.46-.68.84-.62.99-.47 2.14.28 3.01.78.95 2.3 2.41 3.52 3.43 1.31 1.12 2.74 2.36 3.96 3.81-.99 1.55-3.91 4.87-6.48 7.52-.8.85-.79 2.18.01 2.95.21.21.49.4.76.46.73.26 1.63.12 2.22-.52.09-.08 2.09-2.14 4.06-4.39 3.37-3.92 4.75-6.07 3.39-7.88-1.38-1.76-3-3.26-4.38-4.48 1.23-1.14 2.75-2.39 3.98-3.4-.18.82-.32 1.54-.32 2.08-.05 1.18.8 1.98 2.06 2.54.8.36 1.77.61 2.69.84s1.86.41 2.58.55l-.09 1.82c-2.15-.84-3.72-.69-5.24-.53.84 1.22.89 2.74.1 4.38-.61 1.23-1.63 2.71-3.69 5.04-2.01 2.35-4.08 4.44-4.15 4.47-.97.95-2.4 1.34-3.68.83-.2-.09-.8-.36-1.27-.8-1.37-1.39-1.37-3.56-.02-4.94 2.21-2.26 4.51-4.85 5.69-6.43-1.03-1.06-2.11-2.02-3.11-2.89-1.13-.98-2.74-2.48-3.63-3.6-.78-.95-1.1-2.12-.93-3.18-.85-.38-1.83-.75-2.95-1.07-3.49-1.07-7.1-.81-9.22-.37-.93.19-1.04 1.52-.09 1.82 5.17 1.76 8.18 4.18 9.8 6.77l-2.6 1.25c-.84-1.22-2.07-2.24-3.53-2.89-4.32-1.92-9.35.05-11.25 4.32-1.92 4.32.05 9.35 4.32 11.25 4.32 1.92 9.35-.05 11.25-4.32.89-2.01.95-4.15.32-6.12l2.53-1.22c1.44 4.19-.04 8.34-.87 10.2-.27.6-.02 1.26.59 1.52l9.11 4c.6.27 1.28-.03 1.52-.59.91-2.18 3.63-6.93 7.98-7.94.88-.21 1.69-.27 2.49-.33l-.17 2.81c-2.96.31-5.64 2.12-6.93 5.03-1.92 4.32.05 9.35 4.32 11.25 4.32 1.92 9.35-.05 11.25-4.32 1.9-4.39-.07-9.41-4.34-11.31zm-37.7-1.81c-2.61-1.16-3.73-4.19-2.59-6.75 1.16-2.61 4.19-3.73 6.75-2.59.7.31 1.29.75 1.76 1.32l-4.26 2.01c-.63.32-.89 1.05-.56 1.67.11.29.39.47.64.59.35.16.72.14 1.03-.02l4.38-2.14c.24 1.07.17 2.18-.3 3.24-1.19 2.67-4.23 3.84-6.85 2.67zm32.14 14.31c-2.61-1.16-3.73-4.19-2.59-6.75.69-1.56 2.05-2.58 3.63-2.89l-.3 5.28c-.05.52.27 1.02.72 1.22.15.07.25.11.42.13.69.07 1.31-.5 1.3-1.17l.33-5.33c.22.04.42.13.68.24 2.61 1.16 3.73 4.19 2.59 6.75-1.17 2.49-4.22 3.66-6.78 2.52z" opacity=".15"/><path d="m917.38 491.191c2.431 0 4.401-1.97 4.401-4.4s-1.97-4.4-4.401-4.4c-2.43 0-4.4 1.97-4.4 4.4s1.97 4.4 4.4 4.4z" opacity=".15"/></g><g opacity=".15"><path d="m953.59 531.761c.3-.17.57-.38.74-.73.43-.8.11-1.83-.73-2.22-1.99-1-3.96-2.27-4.81-2.97.68-1.32 2.32-3.61 3.27-4.98.36-.56.44-1.38-.09-2.68-1.14-2.83-2.31-2.85-5.92-2.64-3.07.18-6.86 1.48-9.38 3.2-.27.13-.57.3-.91.59-.9.74-1.12 1.88-.68 2.95.44 1.15 1.42 3.01 2.26 4.37.89 1.48 1.86 3.1 2.56 4.86-1.42 1.16-5.25 3.39-8.52 5.1-1.02.55-1.43 1.82-.92 2.8.13.27.34.53.58.67.61.48 1.51.63 2.27.21.11-.04 2.66-1.37 5.24-2.89 4.43-2.66 6.42-4.27 5.69-6.41-.76-2.1-1.82-4.04-2.75-5.63 1.52-.69 3.36-1.4 4.85-1.98-.43.72-.79 1.36-.96 1.87-.42 1.11.14 2.13 1.15 3.06.65.59 1.49 1.14 2.29 1.64.8.51 1.64.97 2.28 1.33 1.47.94 2.49.48 2.49.48z" opacity=".15"/><path d="m957.241 521.051c2.43 0 4.4-1.97 4.4-4.4s-1.97-4.4-4.4-4.4-4.4 1.97-4.4 4.4 1.97 4.4 4.4 4.4z" opacity=".15"/></g></g><path d="m928.09 527.531 2.13 1.74-2.74-.37c-.15-.02-.31.029-.42.139-.11.1-.17.261-.16.411l.19 2.32-1.36-2.07c-.09-.14-.24-.221-.41-.231-.17 0-.32.07-.42.2l-.93 1.24c-.17.24-.12.55.1.71.23.17.55.121.71-.099l.49-.661 2.06 3.12c.13.19.37.28.59.2s.36-.29.34-.52l-.3-3.67 3.91.52c.23.03.44-.089.53-.299s.03-.451-.15-.601l-3.03-2.459 3.09-2.291c.19-.14.26-.38.17-.6-.08-.21-.3-.35-.53-.32l-3.82.401v-.56c0-.28-.23-.51-.51-.51-.21 0-.39.13-.46.31-.03.06-.04.129-.04.209l.01 1.12c0 .14.06.28.17.38s.25.14.39.13l2.52-.269-2.12 1.569c-.13.09-.2.24-.21.4.02.16.09.311.21.411z" opacity=".15"/></g><path d="m1132.51 499.37.09 2.55c-2.92-.88-5.38-1.59-7.27-1.6-2.83.11-4.49 2.74-7.67 2.35 0 0-11.78-6.95-12.05-8.76-1.16-.41-2.48-.8-3.99-1.1-4.7-1.05-9.42-.33-12.16.46-1.2.34-1.21 2.11.07 2.41 6.98 1.78 11.19 4.65 13.59 7.88l-3.29 1.91c-1.23-1.51-2.95-2.74-4.93-3.44-5.88-2.08-12.28 1.03-14.34 6.84-2.08 5.88 1.03 12.28 6.84 14.34 5.88 2.08 12.28-1.03 14.34-6.84.97-2.73.81-5.56-.22-8.07l3.2-1.87c2.33 5.36.81 10.97-.09 13.5-.29.82.11 1.65.93 1.94l12.39 4.31c.82.29 1.68-.18 1.94-.93.97-2.96 4.05-9.48 9.67-11.26 1.13-.37 2.19-.53 3.25-.7l.07 3.71c-3.86.71-7.19 3.38-8.59 7.34-2.08 5.88 1.03 12.28 6.84 14.34 5.88 2.08 12.28-1.03 14.34-6.84 2.04-5.97-1.08-12.38-6.89-14.43-.82-.29-1.6-.49-2.49-.57l-.03-3.62c3.18.36 5.88 1.85 8.58 3.57.75.5 1.66-.34 1.26-1.17-2.02-3.87-8.36-8.11-9.99-11.53l-.09-4.8c-.02-.9-.75-1.62-1.66-1.62-.94 0-1.68.77-1.65 1.7zm-43.69 19.58c-3.55-1.26-5.34-5.12-4.11-8.6 1.26-3.55 5.12-5.34 8.6-4.11.96.34 1.77.86 2.45 1.56l-5.4 3.09c-.79.49-1.06 1.47-.57 2.26.18.37.56.58.9.7.48.17.96.11 1.35-.14l5.54-3.27c.43 1.38.45 2.85-.06 4.29-1.26 3.62-5.14 5.48-8.7 4.22zm43.73 15.47c-3.55-1.26-5.34-5.12-4.11-8.6.75-2.12 2.43-3.6 4.48-4.18l.15 6.97c-.01.69.46 1.32 1.07 1.53.2.07.34.12.57.13.92.02 1.67-.79 1.59-1.67l-.12-7.04c.3.03.57.13.91.25 3.55 1.26 5.34 5.12 4.11 8.6-1.28 3.39-5.16 5.25-8.65 4.01z" fill="#4d61fc"/><path d="m1137.31 502.14-3.69-1.27 1.07-3.12 3.69 1.27c.86.3 1.32 1.24 1.02 2.1-.29.86-1.23 1.32-2.09 1.02z" fill="#4d61fc"/><path d="m1173.79 530.55c.3-.17.57-.38.74-.73.43-.8.11-1.83-.73-2.22-1.99-1-3.96-2.27-4.81-2.97.68-1.32 2.32-3.61 3.27-4.98.36-.56.44-1.38-.09-2.68-1.14-2.83-2.31-2.85-5.92-2.64-3.07.18-6.86 1.48-9.38 3.2-.27.13-.57.3-.91.59-.9.74-1.12 1.88-.68 2.95.44 1.15 1.42 3.01 2.26 4.37.89 1.48 1.86 3.1 2.56 4.86-1.43 1.16-5.25 3.39-8.52 5.1-1.02.55-1.43 1.82-.92 2.8.13.27.34.53.58.67.61.48 1.51.63 2.27.21.11-.04 2.66-1.37 5.24-2.89 4.43-2.66 6.42-4.27 5.69-6.41-.76-2.1-1.82-4.04-2.75-5.63 1.52-.69 3.36-1.4 4.85-1.98-.43.72-.79 1.36-.96 1.87-.42 1.11.14 2.13 1.15 3.06.65.59 1.49 1.14 2.29 1.64.8.51 1.64.97 2.28 1.33 1.48.94 2.49.48 2.49.48z" fill="#4d61fc"/><path d="m1177.45 519.84c2.43 0 4.4-1.97 4.4-4.4s-1.97-4.4-4.4-4.4-4.4 1.97-4.4 4.4 1.97 4.4 4.4 4.4z" fill="#4d61fc"/><path d="m1152.71 502.521 2.44-3.25-.38 4.07c-.02.23.06.45.22.61s.39.24.62.21l3.41-.41-2.97 2.13c-.2.14-.32.37-.31.62 0 .25.12.47.33.61l1.89 1.3c.36.24.81.15 1.05-.19s.15-.81-.19-1.05l-1-.69 4.48-3.22c.28-.2.39-.56.26-.89-.13-.32-.45-.52-.79-.47l-5.4.65.54-5.79c.03-.33-.16-.65-.48-.77s-.67-.02-.87.25l-3.45 4.61-3.56-4.43c-.21-.27-.58-.36-.89-.22s-.49.46-.45.8l.82 5.62-.82.04c-.42.02-.74.37-.72.79.01.31.21.56.48.67.1.04.2.06.31.05l1.66-.08c.21-.01.41-.11.55-.27s.2-.38.17-.59l-.54-3.71 2.43 3.03c.15.18.37.29.6.28.2-.01.42-.13.56-.31z" fill="#4d61fc"/><g fill="#000" opacity=".15"><g opacity=".15"><path d="m1132.51 499.37.09 2.55c-2.92-.88-5.38-1.59-7.27-1.6-2.83.11-4.49 2.74-7.67 2.35 0 0-11.78-6.95-12.05-8.76-1.16-.41-2.48-.8-3.99-1.1-4.7-1.05-9.42-.33-12.16.46-1.2.34-1.21 2.11.07 2.41 6.98 1.78 11.19 4.65 13.59 7.88l-3.29 1.91c-1.23-1.51-2.95-2.74-4.93-3.44-5.88-2.08-12.28 1.03-14.34 6.84-2.08 5.88 1.03 12.28 6.84 14.34 5.88 2.08 12.28-1.03 14.34-6.84.97-2.73.81-5.56-.22-8.07l3.2-1.87c2.33 5.36.81 10.97-.09 13.5-.29.82.11 1.65.93 1.94l12.39 4.31c.82.29 1.68-.18 1.94-.93.97-2.96 4.05-9.48 9.67-11.26 1.13-.37 2.19-.53 3.25-.7l.07 3.71c-3.86.71-7.19 3.38-8.59 7.34-2.08 5.88 1.03 12.28 6.84 14.34 5.88 2.08 12.28-1.03 14.34-6.84 2.04-5.97-1.08-12.38-6.89-14.43-.82-.29-1.6-.49-2.49-.57l-.03-3.62c3.18.36 5.88 1.85 8.58 3.57.75.5 1.66-.34 1.26-1.17-2.02-3.87-8.36-8.11-9.99-11.53l-.09-4.8c-.02-.9-.75-1.62-1.66-1.62-.94 0-1.68.77-1.65 1.7zm-43.69 19.58c-3.55-1.26-5.34-5.12-4.11-8.6 1.26-3.55 5.12-5.34 8.6-4.11.96.34 1.77.86 2.45 1.56l-5.4 3.09c-.79.49-1.06 1.47-.57 2.26.18.37.56.58.9.7.48.17.96.11 1.35-.14l5.54-3.27c.43 1.38.45 2.85-.06 4.29-1.26 3.62-5.14 5.48-8.7 4.22zm43.73 15.47c-3.55-1.26-5.34-5.12-4.11-8.6.75-2.12 2.43-3.6 4.48-4.18l.15 6.97c-.01.69.46 1.32 1.07 1.53.2.07.34.12.57.13.92.02 1.67-.79 1.59-1.67l-.12-7.04c.3.03.57.13.91.25 3.55 1.26 5.34 5.12 4.11 8.6-1.28 3.39-5.16 5.25-8.65 4.01z" opacity=".0225"/><path d="m1137.31 502.14-3.69-1.27 1.07-3.12 3.69 1.27c.86.3 1.32 1.24 1.02 2.1-.29.86-1.23 1.32-2.09 1.02z" opacity=".0225"/></g><g opacity=".15"><path d="m1173.79 530.55c.3-.17.57-.38.74-.73.43-.8.11-1.83-.73-2.22-1.99-1-3.96-2.27-4.81-2.97.68-1.32 2.32-3.61 3.27-4.98.36-.56.44-1.38-.09-2.68-1.14-2.83-2.31-2.85-5.92-2.64-3.07.18-6.86 1.48-9.38 3.2-.27.13-.57.3-.91.59-.9.74-1.12 1.88-.68 2.95.44 1.15 1.42 3.01 2.26 4.37.89 1.48 1.86 3.1 2.56 4.86-1.43 1.16-5.25 3.39-8.52 5.1-1.02.55-1.43 1.82-.92 2.8.13.27.34.53.58.67.61.48 1.51.63 2.27.21.11-.04 2.66-1.37 5.24-2.89 4.43-2.66 6.42-4.27 5.69-6.41-.76-2.1-1.82-4.04-2.75-5.63 1.52-.69 3.36-1.4 4.85-1.98-.43.72-.79 1.36-.96 1.87-.42 1.11.14 2.13 1.15 3.06.65.59 1.49 1.14 2.29 1.64.8.51 1.64.97 2.28 1.33 1.48.94 2.49.48 2.49.48z" opacity=".15"/><path d="m1177.45 519.84c2.43 0 4.4-1.97 4.4-4.4s-1.97-4.4-4.4-4.4-4.4 1.97-4.4 4.4 1.97 4.4 4.4 4.4z" opacity=".15"/></g><path d="m1152.71 502.521 2.44-3.25-.38 4.07c-.02.23.06.45.22.61s.39.24.62.21l3.41-.41-2.97 2.13c-.2.14-.32.37-.31.62 0 .25.12.47.33.61l1.89 1.3c.36.24.81.15 1.05-.19s.15-.81-.19-1.05l-1-.69 4.48-3.22c.28-.2.39-.56.26-.89-.13-.32-.45-.52-.79-.47l-5.4.65.54-5.79c.03-.33-.16-.65-.48-.77s-.67-.02-.87.25l-3.45 4.61-3.56-4.43c-.21-.27-.58-.36-.89-.22s-.49.46-.45.8l.82 5.62-.82.04c-.42.02-.74.37-.72.79.01.31.21.56.48.67.1.04.2.06.31.05l1.66-.08c.21-.01.41-.11.55-.27s.2-.38.17-.59l-.54-3.71 2.43 3.03c.15.18.37.29.6.28.2-.01.42-.13.56-.31z" opacity=".15"/></g><g fill="#4d61fc"><path clip-rule="evenodd" d="m1319.73 497.28c-.99 0-.99-1.5 0-1.5h.84c.99 0 .99 1.5 0 1.5z" fill-rule="evenodd"/><path clip-rule="evenodd" d="m1342.74 500.05h-.39v-.33h-.89v.33h-10.69c-1.46 0-2.66 1.2-2.66 2.66v1.11h.84l-.41 1.47c-.18.03-.36.08-.55.15l-7.66 2.94-3.06-3.12c-1.34-1.88-8.16-3.6-8.23-3.58l-7.86 1.33c-.35.06-.69.19-1.01.41l-6.8 4.68c-2.7 1.86.14 5.97 2.84 4.11l6.34-4.36 3.24-.55c-.97 1.49-6 6.69-5.68 9.9l-1.25 8.22-9.02-.56c-3.28-.19-3.57 4.79-.29 4.99l11.15.7c1.34.16 2.57-.77 2.77-2.11l1.32-8.69.08.05 7.97 6.3 3.81 8.78c1.3 3.01 5.87 1.03 4.58-1.97l-4.05-9.33c-.16-.38-.41-.72-.75-1l-6.6-5.22 4.75-7.7 3.35 3.41c.76.77 1.89.94 2.82.52l7.59-2.92c1.22 0 3.26-.04 3.26-.04l.16-.74c-.62 0-.65-.21-.65-.4.01-.43.46-1.82.93-3.13h3.99v-2.52h5.33c.76 0 1.38-.62 1.38-1.38z" fill-rule="evenodd"/><path clip-rule="evenodd" d="m1316.35 489.91c2.86 0 5.24 2.02 5.81 4.71l-11.63.05c.55-2.71 2.94-4.76 5.82-4.76z" fill-rule="evenodd"/><path clip-rule="evenodd" d="m1321.5 498.8c-1.02 1.78-2.95 2.98-5.15 2.98-3.28 0-5.93-2.66-5.93-5.94 0 .01 9.19 2.3 11.08 2.96z" fill-rule="evenodd"/><path d="m1352.1 501.03c-.76-.26-1.58.13-1.86.88l-1.47 4.01c-2.36 2.4-8.92 4.14-11.73 6.8-.57.58-.05 1.55.72 1.35 2.76-.67 5.46-1.14 8.24-.52l-1.07 3.04c-.77-.19-1.48-.24-2.26-.24-5.47.05-9.94 4.53-9.96 10.13.05 5.47 4.53 9.94 10.07 9.89 5.47-.05 9.94-4.53 9.89-10.07-.03-3.73-2.06-6.94-5.1-8.65l1.13-3.1c.84.44 1.68.89 2.53 1.52 4.21 3.12 4.91 9.49 4.87 12.26.01.71.59 1.35 1.36 1.34l11.66-.04c.77-.01 1.35-.59 1.34-1.36-.02-2.38.32-7.54 3.83-11.37l2.15 2.49c-1.59 1.82-2.54 4.14-2.52 6.72.05 5.47 4.53 9.94 10.07 9.89 5.47-.05 9.94-4.53 9.89-10.07-.05-5.47-4.53-9.94-10.07-9.89-1.87.02-3.67.55-5.14 1.46l-2.21-2.56c2.94-2.02 7.31-3.22 13.69-2.7 1.16.12 1.66-1.37.76-2-2.07-1.46-5.83-3.43-10.08-3.9-1.35-.18-2.58-.23-3.67-.23-.75 1.44-12.66 3.88-12.66 3.88-2.78-.59-3.42-3.28-5.77-4.19-1.59-.53-3.86-.65-6.57-.76l.81-2.11c.31-.77-.09-1.63-.87-1.9zm25.83 24.92c-.01-1.35.43-2.58 1.19-3.62l3.71 4.35c.26.32.65.51 1.1.51.32 0 .71-.07.96-.33.64-.52.7-1.42.18-2.06l-3.64-4.15c.77-.39 1.6-.59 2.51-.6 3.28-.03 6.01 2.59 6.04 5.94.03 3.28-2.59 6.01-5.94 6.04s-6.08-2.67-6.11-6.08zm-41.22.55c-.03-3.28 2.59-6.01 5.94-6.04.32 0 .58-.01.84.06l-2.14 5.88c-.32.71.08 1.61.85 1.86.19.06.32.06.52.06.58-.01 1.16-.4 1.34-.98l2.14-5.81c1.56 1.08 2.54 2.81 2.55 4.81.03 3.28-2.59 6.01-5.94 6.04-3.27.02-6-2.66-6.1-5.88z"/><path d="m1348.15 503.869h3.46v-2.93h-3.46c-.81 0-1.47.66-1.47 1.47.01.81.66 1.46 1.47 1.46z"/><path d="m1372.33 497.7c-1.25-1.17-2.46-1.37-3.09-1.39-.04 0-.07-.01-.11-.01h-8.6c-.04 0-.08 0-.11.01-.63.02-1.85.22-3.09 1.39-2.87 2.7-4.05 8.83-3.5 18.24.06.95.84 1.68 1.78 1.68h.11c.98-.06 1.73-.9 1.67-1.88-.46-7.82.43-11.99 1.42-14.06v7.37 4.22 21.81c0 1.52 1.23 2.75 2.75 2.75s2.75-1.23 2.75-2.75v-20.09h1.03v20.09c0 1.52 1.23 2.75 2.75 2.75s2.75-1.23 2.75-2.75v-21.81-4.22-7.36c.99 2.07 1.88 6.24 1.42 14.06-.06.98.69 1.82 1.67 1.88h.11c.94 0 1.72-.73 1.78-1.68.56-9.42-.62-15.56-3.49-18.25z"/><path d="m1364.83 495.03c2.77 0 5.01-2.243 5.01-5.01s-2.24-5.01-5.01-5.01-5.01 2.243-5.01 5.01 2.24 5.01 5.01 5.01z"/><path d="m1319.73 495.779c-.99 0-.99 1.5 0 1.5h.84c.99 0 .99-1.5 0-1.5z"/><path d="m1336.02 506.349v-2.52h5.33c.76 0 1.38-.62 1.38-1.38v-2.39h-.39v-.33h-.89v.33h-10.69c-1.46 0-2.66 1.2-2.66 2.66v1.11h.84l-.41 1.47c-.18.03-.36.08-.54.15l-7.66 2.94-3.06-3.12c-1.34-1.88-8.16-3.6-8.23-3.58l-7.86 1.33c-.35.06-.69.19-1.01.41l-6.8 4.68c-2.7 1.86.14 5.97 2.84 4.11l6.34-4.36 3.24-.55c-.97 1.49-6 6.691-5.69 9.901l-1.25 8.219-9.02-.56c-3.28-.19-3.57 4.79-.29 4.99l11.15.7c1.34.16 2.57-.77 2.77-2.11l1.32-8.69.08.05 7.97 6.3 3.81 8.78c1.3 3.01 5.87 1.03 4.58-1.97l-4.05-9.329c-.16-.38-.41-.72-.76-1l-6.6-5.221 4.75-7.7 3.35 3.41c.76.77 1.89.94 2.82.52l7.59-2.92c1.22 0 3.26-.04 3.26-.04l.16-.74c-.62 0-.65-.21-.65-.4.01-.43.46-1.82.93-3.13h4z"/><path d="m1316.35 489.91c-2.88 0-5.27 2.05-5.82 4.76l11.63-.05c-.57-2.69-2.95-4.71-5.81-4.71z"/><path d="m1316.35 501.78c2.2 0 4.12-1.2 5.15-2.98-1.89-.66-11.08-2.96-11.08-2.96 0 3.28 2.65 5.94 5.93 5.94z"/><path d="m1383.83 516.04c-1.87.02-3.67.55-5.14 1.46l-2.21-2.56c2.94-2.02 7.31-3.22 13.69-2.7 1.16.12 1.66-1.37.76-2-2.07-1.46-5.83-3.43-10.08-3.9-1.35-.18-2.58-.23-3.67-.23-.14.27-.67.57-1.43.89-.44-4.47-1.58-7.59-3.41-9.31-1.25-1.17-2.46-1.37-3.09-1.39-.04 0-.07-.01-.11-.01h-8.6c-.04 0-.08 0-.11.01-.63.02-1.84.22-3.09 1.39-1.56 1.47-2.62 3.96-3.17 7.44-.63-.04-1.29-.06-1.98-.09l.81-2.11c.3-.77-.11-1.64-.89-1.91-.16-.06-.32-.07-.48-.07v-.02h-3.46c-.81 0-1.47.66-1.47 1.47s.66 1.47 1.47 1.47h1.36l-.75 2.04c-2.36 2.4-8.92 4.14-11.73 6.8-.57.58-.05 1.55.72 1.35 2.76-.67 5.46-1.14 8.24-.52l-1.07 3.04c-.77-.19-1.48-.24-2.26-.24-5.47.05-9.94 4.53-9.96 10.13.05 5.47 4.53 9.94 10.07 9.89 5.47-.05 9.94-4.53 9.89-10.07-.03-3.74-2.06-6.94-5.1-8.65l1.13-3.1c.84.44 1.68.89 2.53 1.52 4.21 3.12 4.91 9.49 4.87 12.26.01.71.59 1.35 1.36 1.34h1.33v5.4c0 1.52 1.23 2.75 2.75 2.75s2.75-1.23 2.75-2.75v-5.41h1.03v5.42c0 1.52 1.23 2.75 2.75 2.75s2.75-1.23 2.75-2.75v-10.93c.4-2.09 1.23-4.47 2.89-6.56.07.01.14.03.21.03h.11c.26 0 .5-.07.72-.17l1.68 1.95c-1.59 1.82-2.54 4.14-2.52 6.72.05 5.47 4.53 9.94 10.07 9.89 5.47-.05 9.94-4.53 9.89-10.07-.03-5.47-4.51-9.94-10.05-9.89zm-35.07 10.29c.03 3.28-2.59 6.01-5.94 6.04-3.28.03-6.01-2.65-6.11-5.87-.03-3.28 2.59-6.01 5.94-6.04.32 0 .58-.01.84.06l-2.14 5.88c-.32.71.08 1.61.85 1.86.19.06.32.06.52.06.58-.01 1.16-.4 1.34-.98l2.14-5.81c1.56 1.07 2.54 2.81 2.56 4.8zm23.5-18.19c-.47.13-.94.26-1.42.38v-6.86c.61 1.27 1.18 3.31 1.42 6.48zm-14.56-2.6c.29-1.75.69-3 1.11-3.88v4.17c-.02-.01-.04-.02-.06-.03-.32-.1-.68-.18-1.05-.26zm26.33 26.47c-3.35.03-6.08-2.65-6.11-6.06-.01-1.35.43-2.58 1.19-3.62l3.71 4.35c.26.32.65.51 1.1.51.32 0 .71-.07.96-.33.64-.52.7-1.42.18-2.06l-3.64-4.15c.77-.39 1.6-.59 2.51-.6 3.28-.03 6.01 2.59 6.04 5.94.03 3.26-2.59 5.99-5.94 6.02z"/><path d="m1364.83 495.03c2.77 0 5.01-2.24 5.01-5.01s-2.24-5.01-5.01-5.01-5.01 2.24-5.01 5.01 2.24 5.01 5.01 5.01z"/></g><g fill="#000" opacity=".15"><path d="m1319.73 495.779c-.99 0-.99 1.5 0 1.5h.84c.99 0 .99-1.5 0-1.5z" opacity=".15"/><path d="m1336.02 506.349v-2.52h5.33c.76 0 1.38-.62 1.38-1.38v-2.39h-.39v-.33h-.89v.33h-10.69c-1.46 0-2.66 1.2-2.66 2.66v1.11h.84l-.41 1.47c-.18.03-.36.08-.54.15l-7.66 2.94-3.06-3.12c-1.34-1.88-8.16-3.6-8.23-3.58l-7.86 1.33c-.35.06-.69.19-1.01.41l-6.8 4.68c-2.7 1.86.14 5.97 2.84 4.11l6.34-4.36 3.24-.55c-.97 1.49-6 6.691-5.69 9.901l-1.25 8.219-9.02-.56c-3.28-.19-3.57 4.79-.29 4.99l11.15.7c1.34.16 2.57-.77 2.77-2.11l1.32-8.69.08.05 7.97 6.3 3.81 8.78c1.3 3.01 5.87 1.03 4.58-1.97l-4.05-9.329c-.16-.38-.41-.72-.76-1l-6.6-5.221 4.75-7.7 3.35 3.41c.76.77 1.89.94 2.82.52l7.59-2.92c1.22 0 3.26-.04 3.26-.04l.16-.74c-.62 0-.65-.21-.65-.4.01-.43.46-1.82.93-3.13h4z" opacity=".15"/><path d="m1316.35 489.91c-2.88 0-5.27 2.05-5.82 4.76l11.63-.05c-.57-2.69-2.95-4.71-5.81-4.71z" opacity=".15"/><path d="m1316.35 501.78c2.2 0 4.12-1.2 5.15-2.98-1.89-.66-11.08-2.96-11.08-2.96 0 3.28 2.65 5.94 5.93 5.94z" opacity=".15"/><path d="m1383.83 516.04c-1.87.02-3.67.55-5.14 1.46l-2.21-2.56c2.94-2.02 7.31-3.22 13.69-2.7 1.16.12 1.66-1.37.76-2-2.07-1.46-5.83-3.43-10.08-3.9-1.35-.18-2.58-.23-3.67-.23-.14.27-.67.57-1.43.89-.44-4.47-1.58-7.59-3.41-9.31-1.25-1.17-2.46-1.37-3.09-1.39-.04 0-.07-.01-.11-.01h-8.6c-.04 0-.08 0-.11.01-.63.02-1.84.22-3.09 1.39-1.56 1.47-2.62 3.96-3.17 7.44-.63-.04-1.29-.06-1.98-.09l.81-2.11c.3-.77-.11-1.64-.89-1.91-.16-.06-.32-.07-.48-.07v-.02h-3.46c-.81 0-1.47.66-1.47 1.47s.66 1.47 1.47 1.47h1.36l-.75 2.04c-2.36 2.4-8.92 4.14-11.73 6.8-.57.58-.05 1.55.72 1.35 2.76-.67 5.46-1.14 8.24-.52l-1.07 3.04c-.77-.19-1.48-.24-2.26-.24-5.47.05-9.94 4.53-9.96 10.13.05 5.47 4.53 9.94 10.07 9.89 5.47-.05 9.94-4.53 9.89-10.07-.03-3.74-2.06-6.94-5.1-8.65l1.13-3.1c.84.44 1.68.89 2.53 1.52 4.21 3.12 4.91 9.49 4.87 12.26.01.71.59 1.35 1.36 1.34h1.33v5.4c0 1.52 1.23 2.75 2.75 2.75s2.75-1.23 2.75-2.75v-5.41h1.03v5.42c0 1.52 1.23 2.75 2.75 2.75s2.75-1.23 2.75-2.75v-10.93c.4-2.09 1.23-4.47 2.89-6.56.07.01.14.03.21.03h.11c.26 0 .5-.07.72-.17l1.68 1.95c-1.59 1.82-2.54 4.14-2.52 6.72.05 5.47 4.53 9.94 10.07 9.89 5.47-.05 9.94-4.53 9.89-10.07-.03-5.47-4.51-9.94-10.05-9.89zm-35.07 10.29c.03 3.28-2.59 6.01-5.94 6.04-3.28.03-6.01-2.65-6.11-5.87-.03-3.28 2.59-6.01 5.94-6.04.32 0 .58-.01.84.06l-2.14 5.88c-.32.71.08 1.61.85 1.86.19.06.32.06.52.06.58-.01 1.16-.4 1.34-.98l2.14-5.81c1.56 1.07 2.54 2.81 2.56 4.8zm23.5-18.19c-.47.13-.94.26-1.42.38v-6.86c.61 1.27 1.18 3.31 1.42 6.48zm-14.56-2.6c.29-1.75.69-3 1.11-3.88v4.17c-.02-.01-.04-.02-.06-.03-.32-.1-.68-.18-1.05-.26zm26.33 26.47c-3.35.03-6.08-2.65-6.11-6.06-.01-1.35.43-2.58 1.19-3.62l3.71 4.35c.26.32.65.51 1.1.51.32 0 .71-.07.96-.33.64-.52.7-1.42.18-2.06l-3.64-4.15c.77-.39 1.6-.59 2.51-.6 3.28-.03 6.01 2.59 6.04 5.94.03 3.26-2.59 5.99-5.94 6.02z" opacity=".15"/><path d="m1364.83 495.03c2.77 0 5.01-2.24 5.01-5.01s-2.24-5.01-5.01-5.01-5.01 2.24-5.01 5.01 2.24 5.01 5.01 5.01z" opacity=".15"/></g><path d="m1368.1 538.29c-1.78 0-3.23-1.45-3.23-3.23v-19.62h-.09v19.62c0 1.78-1.45 3.23-3.23 3.23s-3.22-1.45-3.22-3.23v-30.39c-.49 2.3-.79 5.79-.48 11.03.07 1.24-.88 2.31-2.12 2.38-.01 0-.12 0-.13 0-1.19 0-2.18-.93-2.25-2.12-.56-9.55.67-15.81 3.64-18.61 1.36-1.28 2.71-1.5 3.4-1.52h.13 8.6c.01 0 .13 0 .14.01.67.02 2.02.24 3.38 1.52 2.98 2.8 4.2 9.06 3.64 18.61-.07 1.19-1.06 2.12-2.25 2.12-.01 0-.13 0-.14 0-.6-.03-1.15-.3-1.55-.75s-.6-1.03-.56-1.63c.31-5.24.01-8.72-.48-11.02v30.39c.02 1.76-1.43 3.21-3.2 3.21zm-3.79-23.8h1.03c.26 0 .47.21.47.47v20.09c0 1.26 1.02 2.28 2.28 2.28s2.28-1.02 2.28-2.28v-33.39c0-.22.15-.41.37-.46s.44.06.53.26c.94 1.95 1.95 6.01 1.47 14.29-.02.35.1.69.33.95s.55.42.9.44h.01c.77 0 1.34-.54 1.38-1.23.54-9.26-.59-15.27-3.35-17.87-1.13-1.07-2.23-1.25-2.78-1.26h-8.7c-.65.02-1.75.2-2.88 1.27-2.76 2.6-3.89 8.61-3.35 17.87.04.69.61 1.23 1.31 1.23.8-.04 1.35-.66 1.31-1.38-.48-8.28.53-12.34 1.47-14.29.1-.2.32-.31.53-.26.22.05.37.24.37.46v33.4c0 1.26 1.02 2.28 2.28 2.28s2.28-1.02 2.28-2.28v-20.09c-.01-.28.2-.5.46-.5z" fill="#4d61fc"/><path d="m1364.83 495.51c-3.02 0-5.48-2.46-5.48-5.48s2.46-5.48 5.48-5.48 5.48 2.46 5.48 5.48-2.46 5.48-5.48 5.48zm0-10.02c-2.5 0-4.54 2.04-4.54 4.54s2.04 4.54 4.54 4.54 4.54-2.04 4.54-4.54c-.01-2.51-2.04-4.54-4.54-4.54z" fill="#4d61fc"/><g fill="#fff" opacity=".7"><path d="m1368.1 538.29c-1.78 0-3.23-1.45-3.23-3.23v-19.62h-.09v19.62c0 1.78-1.45 3.23-3.23 3.23s-3.22-1.45-3.22-3.23v-30.39c-.49 2.3-.79 5.79-.48 11.03.07 1.24-.88 2.31-2.12 2.38-.01 0-.12 0-.13 0-1.19 0-2.18-.93-2.25-2.12-.56-9.55.67-15.81 3.64-18.61 1.36-1.28 2.71-1.5 3.4-1.52h.13 8.6c.01 0 .13 0 .14.01.67.02 2.02.24 3.38 1.52 2.98 2.8 4.2 9.06 3.64 18.61-.07 1.19-1.06 2.12-2.25 2.12-.01 0-.13 0-.14 0-.6-.03-1.15-.3-1.55-.75s-.6-1.03-.56-1.63c.31-5.24.01-8.72-.48-11.02v30.39c.02 1.76-1.43 3.21-3.2 3.21zm-3.79-23.8h1.03c.26 0 .47.21.47.47v20.09c0 1.26 1.02 2.28 2.28 2.28s2.28-1.02 2.28-2.28v-33.39c0-.22.15-.41.37-.46s.44.06.53.26c.94 1.95 1.95 6.01 1.47 14.29-.02.35.1.69.33.95s.55.42.9.44h.01c.77 0 1.34-.54 1.38-1.23.54-9.26-.59-15.27-3.35-17.87-1.13-1.07-2.23-1.25-2.78-1.26h-8.7c-.65.02-1.75.2-2.88 1.27-2.76 2.6-3.89 8.61-3.35 17.87.04.69.61 1.23 1.31 1.23.8-.04 1.35-.66 1.31-1.38-.48-8.28.53-12.34 1.47-14.29.1-.2.32-.31.53-.26.22.05.37.24.37.46v33.4c0 1.26 1.02 2.28 2.28 2.28s2.28-1.02 2.28-2.28v-20.09c-.01-.28.2-.5.46-.5z" opacity=".49"/><path d="m1364.83 495.51c-3.02 0-5.48-2.46-5.48-5.48s2.46-5.48 5.48-5.48 5.48 2.46 5.48 5.48-2.46 5.48-5.48 5.48zm0-10.02c-2.5 0-4.54 2.04-4.54 4.54s2.04 4.54 4.54 4.54 4.54-2.04 4.54-4.54c-.01-2.51-2.04-4.54-4.54-4.54z" opacity=".49"/></g><path d="m462.05 700.52-32.89-20.69 8.03-12.76 33.63 21.15z" fill="#000"/><path d="m456.51 706.74-2.88 9.59c-3.06 10.17-1.16 21.18 5.13 29.75 6.51 8.87 16.94 14.04 27.95 13.8 29.27-.64 92.95-2.24 155.24 14.84 4.15 1.14 8.44-1.28 9.6-5.42.83-2.96-.16-6.13-2.52-8.1l-69.86-54.31c-18.77-15.66-42.44-24.23-66.88-24.23h-23.39c-14.93-.01-28.1 9.78-32.39 24.08z" fill="#4d61fc"/><path d="m456.51 706.74-2.88 9.59c-3.06 10.17-1.16 21.18 5.13 29.75 6.51 8.87 16.94 14.04 27.95 13.8 29.27-.64 92.95-2.24 155.24 14.84 4.15 1.14 8.44-1.28 9.6-5.42.83-2.96-.16-6.13-2.52-8.1l-69.86-54.31c-18.77-15.66-42.44-24.23-66.88-24.23h-23.39c-14.93-.01-28.1 9.78-32.39 24.08z" fill="#000" opacity=".15"/><path d="m575.94 808.86h-84.14c-3.99 0-7.23-3.24-7.23-7.23s3.24-7.23 7.23-7.23h84.14c3.99 0 7.23 3.24 7.23 7.23s-3.24 7.23-7.23 7.23z" fill="#000" opacity=".2"/><path d="m575.94 823.32h-84.14c-3.99 0-7.23-3.24-7.23-7.23s3.24-7.23 7.23-7.23h84.14c3.99 0 7.23 3.24 7.23 7.23s-3.24 7.23-7.23 7.23z" fill="#000"/><path d="m575.94 837.78h-84.14c-3.99 0-7.23-3.24-7.23-7.23s3.24-7.23 7.23-7.23h84.14c3.99 0 7.23 3.24 7.23 7.23s-3.24 7.23-7.23 7.23z" fill="#000" opacity=".2"/><path d="m575.94 852.24h-84.14c-3.99 0-7.23-3.24-7.23-7.23s3.24-7.23 7.23-7.23h84.14c3.99 0 7.23 3.24 7.23 7.23s-3.24 7.23-7.23 7.23z" fill="#000"/><path d="m570.01 866.7h-72.27c-3.99 0-7.23-3.24-7.23-7.23s3.24-7.23 7.23-7.23h72.27c3.99 0 7.23 3.24 7.23 7.23s-3.24 7.23-7.23 7.23z" fill="#000" opacity=".2"/><path d="m561.36 881.16h-54.99c-3.99 0-7.23-3.24-7.23-7.23s3.24-7.23 7.23-7.23h54.99c3.99 0 7.23 3.24 7.23 7.23s-3.23 7.23-7.23 7.23z" fill="#000"/><path d="m554 895.62h-40.26c-3.99 0-7.23-3.24-7.23-7.23s3.24-7.23 7.23-7.23h40.26c3.99 0 7.23 3.24 7.23 7.23s-3.24 7.23-7.23 7.23z" fill="#000" opacity=".2"/><path d="m624.34 776.26 97.3 41.57c6.71 2.6 10.71 9.52 9.6 16.63l-.07.44c-1.04 6.64-6.29 11.83-12.94 12.79l-19.05 2.74c-36.39 5.23-72.62-10.45-93.73-40.55l-6.68-9.52c-3.2-4.56-3.66-10.5-1.22-15.51 3.5-7.15 19.38-11.46 26.79-8.59z" fill="#4d61fc"/><path d="m624.34 776.259 97.3 41.57c6.71 2.6 10.71 9.52 9.6 16.63l-.07.44c-1.04 6.64-6.29 11.83-12.94 12.79l-19.05 2.74c-36.39 5.23-72.62-10.45-93.73-40.55l-6.68-9.52c-3.2-4.56-3.66-10.5-1.22-15.51 2.6-6.09 17.92-11.64 26.79-8.59z" fill="#000" opacity=".15"/><path d="m628.33 777.29 104.82 40.53c6.71 2.6 10.71 9.52 9.6 16.63l-.07.44c-1.04 6.64-6.29 11.83-12.94 12.79l-19.05 2.74c-36.39 5.23-72.62-10.45-93.73-40.55l-6.68-9.52c-3.2-4.56-3.66-10.5-1.22-15.51 3.5-7.14 11.86-10.41 19.27-7.55z" fill="#4d61fc"/><path d="m426.88 885.61c-.06-.74-.13-1.49-.2-2.24-6.44-64.91-64.17-113.22-129.18-107.98-13.84 1.12-26.92 4.52-38.91 9.79-3.07 1.35-3.96 5.27-1.74 7.79l64.22 72.88 99.7 24.95c3.28.82 6.39-1.83 6.11-5.19z" fill="#4d61fc"/><path d="m426.88 885.61c-.06-.74-.13-1.49-.2-2.24-6.44-64.91-64.17-113.22-129.18-107.98-13.84 1.12-26.92 4.52-38.91 9.79-3.07 1.35-3.96 5.27-1.74 7.79l64.22 72.88 99.7 24.95c3.28.82 6.39-1.83 6.11-5.19z" fill="#000" opacity=".15"/><path d="m181.85 903.55c0-59.93 48.58-108.5 108.5-108.5s108.5 48.58 108.5 108.5c0 57.65-23.52 105.01-80.29 108.5-2.24.14-25.94 0-28.21 0-59.92 0-108.5-48.57-108.5-108.5z" fill="#3f4249"/><path d="m850.87 1012.05c59.923 0 108.5-48.577 108.5-108.5s-48.577-108.5-108.5-108.5-108.5 48.577-108.5 108.5 48.577 108.5 108.5 108.5z" fill="#3f4249"/><path d="m752.48 821.62c-27.14-19.01-66.34-34.61-97.93-43.94l-.77-17.72 57.37 12.51c26.64 5.81 54.49 1.71 78.32-11.55l12.57-6.99c2.64-1.47 5.79-1.69 8.61-.62 8.02 3.06 8.92 14.04 1.51 18.37l-8.44 4.93c-17.17 10.02-32.52 22.9-45.37 38.08z" fill="#3f4249"/><path d="m989.59 806.43h-25.41v-24.02h25.41c6.44 0 11.66 5.22 11.66 11.66v.7c0 6.44-5.22 11.66-11.66 11.66z" fill="#4d61fc"/><path d="m990.21 782.41h-38.63v50.81h38.63z" fill="#000"/><path d="m992.89 838.35c2.12-1.46 2.77-4.3 1.48-6.53-25.54-44.34-69.11-76.99-123.95-76.99-53.58 0-96.67 31.42-122.63 74.1-1.3 2.13-.83 4.89 1.12 6.44l114.64 91.63z" fill="#4d61fc"/><path d="m870.42 1012.05c59.923 0 108.5-48.577 108.5-108.5s-48.577-108.5-108.5-108.5-108.5 48.577-108.5 108.5 48.577 108.5 108.5 108.5z" fill="#000"/><path d="m870.42 992.73c49.253 0 89.18-39.927 89.18-89.18s-39.927-89.18-89.18-89.18-89.18 39.927-89.18 89.18 39.927 89.18 89.18 89.18z" fill="#fff"/><path d="m870.42 955.211c28.531 0 51.66-23.129 51.66-51.66s-23.129-51.66-51.66-51.66-51.66 23.129-51.66 51.66 23.129 51.66 51.66 51.66z" fill="#000" opacity=".2"/><path d="m870.42 940.461c20.385 0 36.91-16.526 36.91-36.91 0-20.385-16.525-36.91-36.91-36.91s-36.91 16.525-36.91 36.91c0 20.384 16.525 36.91 36.91 36.91z" fill="#3f4249"/><path d="m435.92 903.5c.02-.75.04-1.5.05-2.25.73-65.22-51.33-119.59-116.53-121.53-13.88-.41-27.25 1.53-39.75 5.46-3.19 1-4.51 4.81-2.59 7.55l55.82 79.5 96.35 35.76c3.17 1.18 6.55-1.11 6.65-4.49z" fill="#4d61fc"/><path d="m885.59 944.53h-46.13l-2.7 9.03h-333.21c-9.29 0-17.65-5.62-21.17-14.22l-78.11-191.1 14.06-22.58 79.59 194.74c2.87 7.01 9.69 11.59 17.26 11.59h376.31z" fill="#3f4249"/><path d="m840.76 967.79h-162.1c-4.2 0-7.61-3.41-7.61-7.61v-33.54c0-4.2 3.41-7.61 7.61-7.61h162.1z" fill="#3f4249"/><path d="m901.42 944.53h-46.13l-2.7 9.03h-333.22c-9.29 0-17.65-5.62-21.17-14.22l-78.11-191.1 13.78-23.25 79.88 195.42c2.87 7.01 9.69 11.59 17.26 11.59h376.31z" fill="#000"/><path d="m856.59 967.79h-162.1c-4.2 0-7.61-3.41-7.61-7.61v-33.54c0-4.2 3.41-7.61 7.61-7.61h162.1z" fill="#000"/><path d="m691.2 768.13-37.42-8.16.77 17.72c9.32 2.75 19.3 6.05 29.43 9.82z" fill="#000"/><path d="m469.2 706.74-2.88 9.59c-3.06 10.17-1.16 21.18 5.13 29.75 6.51 8.87 16.94 14.04 27.95 13.8 29.27-.64 91.5.52 153.79 17.6 4.15 1.14 8.44-1.28 9.6-5.42.83-2.96-.16-6.13-2.52-8.1l-68.41-57.07c-18.77-15.66-42.44-24.23-66.88-24.23h-23.38c-14.94-.01-28.11 9.78-32.4 24.08z" fill="#4d61fc"/><path d="m528.04 745.05s-18.83-.49-25.02-.35c-6.7.15-13.05-3-17.02-8.41-3.83-5.21-4.98-11.92-3.12-18.12l1.76-5.84c2.62-8.71 10.63-14.67 19.73-14.67h14.24c8.2 0 16.26 1.59 23.76 4.61-.01-.01-14.04 8.22-14.33 42.78z" fill="#d9dcde"/><path d="m532.46 745.05s-18.83-.49-25.02-.35c-6.7.15-13.05-3-17.02-8.41-3.83-5.21-4.98-11.92-3.12-18.12l1.76-5.84c2.62-8.71 10.63-14.67 19.73-14.67h14.24c8.2 0 16.26 1.59 23.76 4.61-.01-.01-14.05 8.22-14.33 42.78z" fill="#fff"/><path d="m390.57 738.51h-24.29v-73.4h24.29c20.27 0 36.7 16.43 36.7 36.7s-16.43 36.7-36.7 36.7z" fill="#4d61fc"/><path d="m366.28 738.51c-3.71 0-6.72-3.01-6.72-6.72v-59.97c0-3.71 3.01-6.72 6.72-6.72s6.72 3.01 6.72 6.72v59.97c-.01 3.71-3.01 6.72-6.72 6.72z" fill="#000"/><path d="m423.79 728.651h-23.6v-26.84h23.6c7.41 0 13.42 6.01 13.42 13.42.01 7.41-6 13.42-13.42 13.42z" fill="#d9dcde"/><path d="m400.2 728.65c-2.25 0-4.08-1.83-4.08-4.08v-18.69c0-2.25 1.83-4.08 4.08-4.08s4.08 1.83 4.08 4.08v18.69c-.01 2.26-1.83 4.08-4.08 4.08z" fill="#fff"/><path d="m574.36 779.94h-66.31v-10.299c0-2.3 1.86-4.161 4.16-4.161h57.99c2.3 0 4.16 1.861 4.16 4.161z" fill="#000"/><path d="m588.76 794.4h-95.11c-3.99 0-7.23-3.24-7.23-7.23s3.24-7.23 7.23-7.23h95.11c3.99 0 7.23 3.24 7.23 7.23s-3.23 7.23-7.23 7.23z" fill="#000"/><path d="m583.27 808.86h-84.14c-3.99 0-7.23-3.24-7.23-7.23s3.24-7.23 7.23-7.23h84.14c3.99 0 7.23 3.24 7.23 7.23s-3.23 7.23-7.23 7.23z" fill="#d9dcde"/><path d="m583.27 823.32h-84.14c-3.99 0-7.23-3.24-7.23-7.23s3.24-7.23 7.23-7.23h84.14c3.99 0 7.23 3.24 7.23 7.23s-3.23 7.23-7.23 7.23z" fill="#3f4249"/><path d="m583.27 837.78h-84.14c-3.99 0-7.23-3.24-7.23-7.23s3.24-7.23 7.23-7.23h84.14c3.99 0 7.23 3.24 7.23 7.23s-3.23 7.23-7.23 7.23z" fill="#d9dcde"/><path d="m583.27 852.24h-84.14c-3.99 0-7.23-3.24-7.23-7.23s3.24-7.23 7.23-7.23h84.14c3.99 0 7.23 3.24 7.23 7.23s-3.23 7.23-7.23 7.23z" fill="#3f4249"/><path d="m577.34 866.7h-72.27c-3.99 0-7.23-3.24-7.23-7.23s3.24-7.23 7.23-7.23h72.27c3.99 0 7.23 3.24 7.23 7.23s-3.23 7.23-7.23 7.23z" fill="#d9dcde"/><path d="m568.7 881.16h-54.99c-3.99 0-7.23-3.24-7.23-7.23s3.24-7.23 7.23-7.23h54.99c3.99 0 7.23 3.24 7.23 7.23s-3.24 7.23-7.23 7.23z" fill="#3f4249"/><path d="m561.34 895.62h-40.26c-3.99 0-7.23-3.24-7.23-7.23s3.24-7.23 7.23-7.23h40.26c3.99 0 7.23 3.24 7.23 7.23s-3.24 7.23-7.23 7.23z" fill="#d9dcde"/><path d="m862.32 911.58-24.46-91.08s6.15-2.41 9.74-3.35c4.39-1.15 9.65-1.82 9.65-1.82l24.46 91.07c1.43 5.35-1.75 10.85-7.1 12.28-5.37 1.44-10.86-1.74-12.29-7.1z" fill="#d9dcde"/><path d="m857.24 815.34 24.46 91.07c1.43 5.35-1.75 10.85-7.1 12.28s-10.85-1.75-12.28-7.1l-24.46-91.08s4.98-1.91 9.13-3.18 10.25-1.99 10.25-1.99z" fill="#000" opacity=".2"/><path d="m871.73 913.05c2.624 0 4.75-2.127 4.75-4.75 0-2.624-2.126-4.75-4.75-4.75-2.623 0-4.75 2.126-4.75 4.75 0 2.623 2.127 4.75 4.75 4.75z" fill="#000"/><path d="m312.09 1012.05c59.923 0 108.5-48.577 108.5-108.5s-48.577-108.5-108.5-108.5-108.5 48.577-108.5 108.5 48.577 108.5 108.5 108.5z" fill="#000"/><path d="m312.09 992.73c49.253 0 89.18-39.927 89.18-89.18s-39.927-89.18-89.18-89.18-89.18 39.927-89.18 89.18 39.927 89.18 89.18 89.18z" fill="#fff"/><path d="m312.09 955.211c28.531 0 51.66-23.129 51.66-51.66s-23.129-51.66-51.66-51.66-51.66 23.129-51.66 51.66 23.129 51.66 51.66 51.66z" fill="#000" opacity=".2"/><path d="m312.09 940.461c20.385 0 36.91-16.526 36.91-36.91 0-20.385-16.525-36.91-36.91-36.91s-36.91 16.525-36.91 36.91c0 20.384 16.525 36.91 36.91 36.91z" fill="#3f4249"/><path d="m628.64 932c24.34 0 44.07-19.73 44.07-44.07 0-24.339-19.73-44.07-44.07-44.07-24.339 0-44.07 19.731-44.07 44.07 0 24.34 19.731 44.07 44.07 44.07z" fill="#000" opacity=".2"/><path d="m698.39 914.79h-35.23v-56.12h35.23c15.5 0 28.06 12.56 28.06 28.06.01 15.49-12.56 28.06-28.06 28.06z" fill="#000" opacity=".2"/><path d="m639.08 932c24.339 0 44.07-19.73 44.07-44.07 0-24.339-19.731-44.07-44.07-44.07s-44.07 19.731-44.07 44.07c0 24.34 19.731 44.07 44.07 44.07z" fill="#d9dcde"/><path d="m639.081 917.2c16.165 0 29.27-13.104 29.27-29.27 0-16.165-13.105-29.27-29.27-29.27-16.166 0-29.27 13.105-29.27 29.27 0 16.166 13.104 29.27 29.27 29.27z" fill="#d9dcde"/><path d="m639.081 917.2c16.165 0 29.27-13.104 29.27-29.27 0-16.165-13.105-29.27-29.27-29.27-16.166 0-29.27 13.105-29.27 29.27 0 16.166 13.104 29.27 29.27 29.27z" fill="#000" opacity=".2"/><path d="m307.71 919.03c-1.95 0-3.92-.53-5.69-1.63-5.05-3.15-6.6-9.8-3.45-14.85l182.87-293.98c3.15-5.05 6.86-1.44 11.91 1.71s9.54 4.64 6.39 9.69l-182.87 293.98c-2.05 3.28-5.56 5.08-9.16 5.08z" fill="#d9dcde"/><path d="m307.71 919.03c-1.95 0-3.92-.53-5.69-1.63-5.05-3.15-6.6-9.8-3.45-14.85l182.87-293.98c3.15-5.05 6.86-1.44 11.91 1.71s9.54 4.64 6.39 9.69l-182.87 293.98c-2.05 3.28-5.56 5.08-9.16 5.08z" fill="#000" opacity=".04"/><path d="m334.99 843.99 146.44-235.42c3.15-5.05 6.86-1.44 11.91 1.71s9.54 4.64 6.39 9.69l-147.14 236.54z" fill="#000"/><path d="m778.08 888.391h154.96l-10.95 21.56h-146.4z" fill="#000"/><path d="m307.8 913.05c2.624 0 4.75-2.127 4.75-4.75 0-2.624-2.126-4.75-4.75-4.75-2.623 0-4.75 2.126-4.75 4.75 0 2.623 2.127 4.75 4.75 4.75z" fill="#000"/><path d="m834.01 485.901 10.54-4.04 4.57 1.72 7.3 9.39c.7.9 2 1.06 2.9.36.82-.63 1.04-1.77.52-2.67l-7.27-12.53-5.08-1.61-1.64.57z" fill="#f69797"/><path d="m842.06 492.641 1.489-4.99 3.161-.15 2.12 9.52c.2.89 1.1 1.45 1.99 1.22.74-.19 1.249-.87 1.219-1.64l-.389-9.78-2.52-3.25-4.57-1.72-10.54 4.04 4.949 8.48z" fill="#f69797"/><path d="m834.01 485.901 10.54-4.04 4.57 1.72 7.3 9.39c.7.9 2 1.06 2.9.36.82-.63 1.04-1.77.52-2.67l-7.27-12.53-5.08-1.61-1.64.57z" fill="#000" opacity=".15"/><path d="m842.06 492.641 1.489-4.99 3.161-.15 2.12 9.52c.2.89 1.1 1.45 1.99 1.22.74-.19 1.249-.87 1.219-1.64l-.389-9.78-2.52-3.25-4.57-1.72-10.54 4.04 4.949 8.48z" fill="#000" opacity=".15"/><path d="m841.12 556.49-1.87-43.54c5.28-11.02 3.08-11.85 3.89-14.1.59-1.63 4.71-4.79 6.93-6.39.79-.57 1.01-1.65.51-2.49-.53-.89-1.66-1.19-2.56-.68l-4.58 2.58c-2.49 1.4-5.64.55-7.08-1.92-1.34-2.3-.74-5.24 1.39-6.83l8.07-6.01 12.38-4.33c1.07-.37 1.69-1.48 1.46-2.59-.27-1.27-1.56-2.05-2.81-1.69l-15.87 4.53c-.27.08-.54.18-.79.3l-12.05 5.78c-1.55.74-2.61 2.23-2.81 3.93l-3.2 27.41-8.91 46.7" fill="#f69797"/><path d="m601.25 615.431-33.28 67.7 15.9 11.4 40.88-62.45z" fill="#f69797"/><path d="m603.9 610.871 35.03-60.37c2.4-4.13 6.48-7.01 11.18-7.88l32.04-5.91 16.29 14.8 27.14 111.29 1.88 36.5c1.19 4.44-2.16 8.8-6.76 8.8h-25.7c-3.36 0-6.25-2.4-6.87-5.7l-23.01-122.72-37.94 49.25z" fill="#21252b"/><path d="m725.58 529.88 38.83-5.97c6.01-.93 12.04 1.56 15.65 6.46l30.63 41.5 2.8-16.27h27.61l.11 47.77c.03 13.77-16.03 21.32-26.61 12.49l-40.92-34.14 31.48 118.13c.77 2.88-1.4 5.7-4.38 5.7l-27.68-.01-14.46-54.7-28.84-103.67z" fill="#21252b"/><path d="m718.16 662.5h43.56l2.66 9.76h-44.14z" fill="#000"/><path d="m688.51 703.681 59.88 162.87 29.7-47.54-24.68-99.29c-.25-1.01.51-1.98 1.55-1.98.68 0 1.28.43 1.51 1.07l30.26 86.38-77.68 124.35 24.03 21.16 95.67-125.57c6.85-8.99 8.91-20.75 5.53-31.54l-27.34-88.05-1.9-6.2.14.57c.69 2.87-1.48 5.63-4.43 5.63l-20.52-.01c-4.19 0-7.86-2.83-8.92-6.88l-6.92-26.39h-44.14l7.22 26.93c1.2 4.47-2.17 8.86-6.79 8.86h-25.66c-2.86-.01-5.43-1.73-6.51-4.37z" fill="#4d61fc"/><path d="m688.51 703.681 59.88 162.87 29.7-47.54-24.68-99.29c-.25-1.01.51-1.98 1.55-1.98.68 0 1.28.43 1.51 1.07l30.26 86.38-77.68 124.35 24.03 21.16 95.67-125.57c6.85-8.99 8.91-20.75 5.53-31.54l-27.34-88.05-1.9-6.2.14.57c.69 2.87-1.48 5.63-4.43 5.63l-20.52-.01c-4.19 0-7.86-2.83-8.92-6.88l-6.92-26.39h-44.14l7.22 26.93c1.2 4.47-2.17 8.86-6.79 8.86h-25.66c-2.86-.01-5.43-1.73-6.51-4.37z" fill="#fff" opacity=".2"/><path d="m764.43 909.52 13.74 39.04 34-.25-19.83-75.41z" fill="#4d61fc"/><path d="m764.43 909.52 13.74 39.04 34-.25-19.83-75.41z" fill="#fff" opacity=".2"/><path d="m813.49 555.601-1.43 8.36h21.26l1.52-3.58 1.41 3.58 5.02.52-.17-8.88z" fill="#3f4249"/><path d="m723 525.87c-1.88-9.68-9.49-16.22-18.93-15.16-9.45 1.06-16.05 11.25-14.98 20.78.39 3.45-.5 2.85 1.65 6.42 2.02 3.36 3.82 9.41 8.38 14.95 3.96 4.8 13.08 4.83 15.87 4.52 5.95-.67 16.17-4.98 18.52-11.84 1.03-3.02-3.45-12.67-6.71-17.26z" fill="#f69797"/><path d="m719.11 483.94c4.3-2.16 6.03-7.4 3.87-11.7s-7.4-6.03-11.7-3.87c-.27.14-.96.21-.78.44 4.99 6.17 6.92 15.98 8.61 15.13z" fill="#21252b"/><path d="m718.65 487.09s-32.68-15.73-31.25 7.83l.23 6.11 1.35 30.92c.1.9 34.78-2.69 34.51-3.8l-3.99-17.97c.2-1.61.22-3.43-.01-5.46-.73-9.23-.84-17.63-.84-17.63z" fill="#f69797"/><path d="m707.54 463.181s30.09 42.38 9.61 54.31c-17.71 10.36-32.04-18.01-32.04-18.01l-7.04-19.34 12.03-11.8z" fill="#f69797"/><path d="m678.28 472.21c1.68-1.06 3.47-1.68 5.27-1.93.8-.11 1.34-.89 1.2-1.68-.69-3.83 1.26-7.78 4.97-9.46 2.61-1.18 5.49-.97 7.82.32.75.41 1.7.15 2.04-.64 1.45-3.34 4.28-6.1 8.15-7.32 5.62-1.77 11.88.53 15 5.53 4.55 7.29 1.12 16.76-6.96 19.48-5.66 1.91-12.03-.38-15.24-5.42-1.14-1.8-1.77-3.73-1.97-5.66-2.81 1.12-7.3 2.57-11.09 4.9.09.01.18.02.27.04l-6.06 5.68s6.45 20.15 5.1 20.3c-6 .66-12-2.89-13.98-9.15-1.78-5.6.51-11.84 5.48-14.99z" fill="#21252b"/><path d="m705.26 475.55c-3.51-2.07-8.53-3.32-12.34-1.57-5.5 2.53-7.57 8.5-4.87 13.32l.58 1.04c.57 1.02.2 2.3-.81 2.87-.93.52-1.33 1.66-.92 2.65l2.17 5.23c.17.41-.02.88-.42 1.06-.39.18-.85.03-1.05-.34l-1.94-3.44-5.44-21.29 14.45-11.79 9.47 2.75z" fill="#21252b"/><path d="m685.3 495.421s-2.71-3.651-6.45-.451c-4.22 3.67.22 14.44 8.69 12.52 4.43-.98 2.78-3.229 1.02-6.389-3.26-5.68-3.26-5.68-3.26-5.68z" fill="#f69797"/><path d="m679.53 497.92c.68-.84 1.41-1.3 2.17-1.38s1.57.22 2.34.93 1.37 1.63 1.73 2.78l.36.91c.09.29-.06.57-.35.66s-.57-.06-.66-.35l-.36-.91c-.09-.29-.68-1.68-1.43-2.32-.54-.46-1.08-.69-1.56-.7-.45.06-.98.38-1.45.92-.17.21-.55.25-.76.08-.16-.03-.17-.34-.03-.62z" fill="#000" opacity=".3"/><path d="m687.91 507.41s1.7-.33 2.36-1.5l-2.13 6.6z" fill="#000" opacity=".15"/><path d="m715.19 477.701-2.35.57c-.22.03-.54-.07-.59-.37-.04-.3.07-.54.37-.59l2.35-.57c.3-.04.59-.16.87-.28.56-.31 1.63-.85 2.56-1.74.2-.18.51-.15.69.05s.15.51-.05.69c-1.01.91-2.2 1.61-2.77 1.85-.36.13-.72.26-1.08.39z" fill="#f69797"/><path d="m721.64 519.8c-2.07.53-4.71.79-7.76.2-5.19 1.44-9.46.21-12.24-1.16-.23-.15-.34-.43-.19-.65.15-.23.43-.34.65-.19 2.28 1.17 5.56 2.16 9.55 1.55-.1-.04 0 0 0 0 3.91-.65 6.9-2.71 8.88-4.76z" fill="#000" opacity=".15"/><path d="m716.09 503.551s-2.8 1.19-5.88 1.23c-2.68.04-4.54-.75-4.54-.75s.44 4.13 4.7 4.08c5.01-.05 5.72-4.56 5.72-4.56z" fill="#fff"/><path d="m702.57 495.681c1.038 0 1.88-.842 1.88-1.88s-.842-1.88-1.88-1.88-1.88.842-1.88 1.88.842 1.88 1.88 1.88z" fill="#21252b"/><path d="m703.1 493.301c.21 0 .38-.17.38-.38s-.17-.38-.38-.38-.38.17-.38.38.17.38.38.38z" fill="#fff"/><path d="m716.35 489.99c1.038 0 1.88-.841 1.88-1.88 0-1.038-.842-1.88-1.88-1.88-1.039 0-1.88.842-1.88 1.88 0 1.039.841 1.88 1.88 1.88z" fill="#21252b"/><path d="m716.89 487.611c.21 0 .38-.171.38-.38 0-.21-.17-.38-.38-.38s-.38.17-.38.38c0 .209.17.38.38.38z" fill="#fff"/><path d="m714.54 500.54-2.23 1.1c-.28.12-.57 0-.76-.25-.12-.28 0-.57.25-.76l2.23-1.1c.53-.3.81-.99.51-1.52s-.99-.81-1.52-.51c-.28.12-.57 0-.76-.25s0-.57.25-.76c1.08-.53 2.4-.11 3.01.94.53 1.26.1 2.58-.98 3.11z" fill="#000" opacity=".09"/><path d="m719.39 481.53-7.57 3.17-1.04.44-6.6 2.76-.07.03-8.54 3.58c-1.39.58-2.03 2.16-1.45 3.55l.81 1.94c1.57 3.75 5.91 5.53 9.66 3.96s5.53-5.91 3.96-9.66l-.81-1.94c-.23-.56-.67-1.02-1.2-1.3l2.64-1.11c-.17.56-.08 1.18.15 1.73l.81 1.94c1.57 3.75 5.91 5.53 9.66 3.96s5.53-5.91 3.96-9.66l-.81-1.94c-.59-1.39-2.17-2.03-3.56-1.45zm-12.63 8.23.81 1.94c1.34 3.19-.13 6.91-3.32 8.25s-6.91-.13-8.25-3.32l-.81-1.94c-.35-.83.05-1.82.89-2.17l8.54-3.58.07-.03c.76-.32 1.72.02 2.07.85zm16.02-4.43c1.34 3.19-.13 6.91-3.32 8.25s-6.91-.13-8.25-3.32l-.81-1.94c-.35-.83.05-1.82.89-2.17l1.04-.44 7.57-3.17c.83-.35 1.82.05 2.17.89z" fill="#21252b"/><path d="m688.85 528.73-6.69 7.971 6.81 31.88s5.79-10.511 12.21-13.901l-9.81-16.979z" fill="#3f4249"/><path d="m723 525.871-.33-1.41 10.98 1.24 2.75 6.39 10.31 20.91s-11.87-4.58-16.15-3.16l-3.44-21.1z" fill="#3f4249"/><path d="m730.56 549.83s-3.51 5.58-13.95 7.32c-6.91 1.15-12.43-.93-15.42-2.47 0 0-.68.38-.9.52-.28.18-1.1.76-1.1.76l18.97 106.54h43.56z" fill="#fff"/><path d="m702.57 932.241 4.17-5.24c.74-.93 2.1-1.05 2.99-.26l26.5 23.34c.86.76.94 2.07.18 2.93l-4.38 4.94c-.76.85-2.06.93-2.91.18l-26.29-23.03c-.84-.74-.95-1.99-.26-2.86z" fill="#4d61fc"/><path d="m777.92 955.44-2.12-6.15c-.46-1.34.53-2.74 1.94-2.75l35.1-.26c.93-.01 1.76.61 2.01 1.51l1.79 6.4c.37 1.32-.62 2.63-1.99 2.63h-34.77c-.89.01-1.67-.55-1.96-1.38z" fill="#4d61fc"/><path d="m704.74 936.771-16.34 27.459 21 15.87 18.63-22.93z" fill="#f69797"/><path d="m694.81 966.931 12.27-14.88" style="opacity:.15;stroke:#000;stroke-width:1.5;stroke-miterlimit:10;stroke-linecap:round;stroke-linejoin:round"/><path d="m711.409 956.381-11.3 14.13" style="opacity:.15;stroke:#000;stroke-width:1.5;stroke-miterlimit:10;stroke-linecap:round;stroke-linejoin:round"/><path d="m716.09 961.301-7.49 9.31" style="opacity:.15;stroke:#000;stroke-width:1.5;stroke-miterlimit:10;stroke-linecap:round;stroke-linejoin:round"/><path d="m729.82 995.68-11.86-24.11c-.56-1.13-1.73-1.82-2.99-1.75l-13.37.71c-1.64-.02-3.23-.61-4.48-1.66l-1.08-.9c-1.7-1.43-2.62-3.58-2.47-5.8.11-1.68-.62-3.3-1.94-4.33-1.96-1.52-4.72-1.39-6.54.29l-13.9 12.92 34.68 33.96h26.46z" fill="#4d61fc"/><path d="m729.82 995.68-11.86-24.11c-.56-1.13-1.73-1.82-2.99-1.75l-13.37.71c-1.64-.02-3.23-.61-4.48-1.66l-1.08-.9c-1.7-1.43-2.62-3.58-2.47-5.8.11-1.68-.62-3.3-1.94-4.33-1.96-1.52-4.72-1.39-6.54.29l-13.9 12.92 34.68 33.96h26.46z" fill="#000" opacity=".3"/><path d="m742.94 1004.99c0-5.469-4.43-9.899-9.9-9.899s-9.9 4.43-9.9 9.899z" fill="#242830"/><path d="m671.19 971.04-3.12 2.9c-1.31 1.21-1.34 3.27-.07 4.53l33.11 32.68c.59.58 1.38.9 2.2.9h36.5c1.73 0 3.14-1.4 3.14-3.14v-3.91h-37.07z" fill="#fff"/><path d="m682.81 982.42 5.36-5.26c2.63-2.58 2.63-6.82 0-9.4l-6.61-6.47-10.37 9.74z" fill="#fff" opacity=".2"/><path d="m714.33 1004.99-7.92-23.299-17.21-5.84-6.39 6.57 23.05 22.579z" fill="#fff" opacity=".6"/><path d="m865.18 995.09-4.41 9.9-77.98.06v-19.82c0-2.56 1.82-4.77 4.34-5.25 1.28-.24 2.6-.02 3.72.64l5.26 3.09c1.77 1.04 3.84 1.47 5.89 1.22l2.06-.26c2.15-.27 4.14-1.27 5.63-2.84l8.63-9.08c1.06-1.11 2.73-1.38 4.08-.65z" fill="#4d61fc"/><path d="m865.18 995.09-4.41 9.9-77.98.06v-19.82c0-2.56 1.82-4.77 4.34-5.25 1.28-.24 2.6-.02 3.72.64l5.26 3.09c1.77 1.04 3.84 1.47 5.89 1.22l2.06-.26c2.15-.27 4.14-1.27 5.63-2.84l8.63-9.08c1.06-1.11 2.73-1.38 4.08-.65z" fill="#000" opacity=".3"/><path d="m798.35 1005.04.21-9.02c.1-3.68-2.84-6.73-6.53-6.76l-9.25-.07v15.85z" fill="#fff" opacity=".2"/><path d="m850.87 1004.99-25.52-17.42-26.96 6.79v10.68z" fill="#fff" opacity=".6"/><path d="m855.279 1004.99c0-5.47 4.43-9.9 9.9-9.9s9.9 4.43 9.9 9.9z" fill="#242830"/><path d="m855.279 1004.99c0-5.47 4.43-9.9 9.9-9.9s9.9 4.43 9.9 9.9z" fill="#fff"/><path d="m724.03 983.92h-5.33c-.62 0-1.11-.5-1.11-1.11 0-.62.5-1.11 1.11-1.11h4.23z" fill="#fff"/><path d="m726.23 988.39h-4.92c-.62 0-1.11-.5-1.11-1.11 0-.62.5-1.11 1.11-1.11h3.83z" fill="#fff"/><path d="m728.43 992.87h-4.52c-.62 0-1.11-.5-1.11-1.11 0-.62.5-1.11 1.11-1.11h3.42z" fill="#fff"/><path d="m789.1 979.601-8.01-22.76h33.2l3.96 15.99-8.78 9.24c-1.35 1.42-3.16 2.33-5.11 2.57l-2.67.33c-1.85.23-3.73-.16-5.34-1.11z" fill="#f69797"/><path d="m798.91 985.23-4.27-18.81" style="opacity:.15;stroke:#000;stroke-width:1.5;stroke-miterlimit:10;stroke-linecap:round;stroke-linejoin:round"/><path d="m800.729 965.641 4.56 18.88" style="opacity:.15;stroke:#000;stroke-width:1.5;stroke-miterlimit:10;stroke-linecap:round;stroke-linejoin:round"/><path d="m807.47 964.95 3.65 15.2" style="opacity:.15;stroke:#000;stroke-width:1.5;stroke-miterlimit:10;stroke-linecap:round;stroke-linejoin:round"/><path d="m833.9 984.71c-.41-.46-.37-1.16.09-1.57l3.38-2.99 2.09 1.12-3.99 3.54c-.46.41-1.16.36-1.57-.1z" fill="#fff"/><path d="m838.82 986.34c-.41-.46-.37-1.16.09-1.57l2.66-2.36 2.09 1.12-3.27 2.9c-.46.41-1.16.37-1.57-.09z" fill="#fff"/><path d="m843.74 987.96c-.41-.46-.37-1.16.09-1.57l1.94-1.72 2.09 1.12-2.56 2.27c-.45.4-1.16.36-1.56-.1z" fill="#fff"/><path d="m624.75 632.08 5.11-6.63-17.19-12.19-3.32 2.05.92-3.74-4.8-3.41-4.22 7.27z" fill="#3f4249"/><path d="m567.97 683.131-17.08-4.57h-16.86c-.75 0-1.4.51-1.58 1.24-.2.82.24 1.65 1.04 1.93 4.11 1.42 16.47 3.49 27.12 7.21 7.47 2.61 14.1 7.16 16.41 8.04 6.31 2.41 6.85-2.45 6.85-2.45z" fill="#f69797"/><path d="m742.94 1004.99c0-5.469-4.43-9.899-9.9-9.899s-9.9 4.43-9.9 9.899z" fill="#fff"/><path d="m782.78 1004.99v3.93c0 1.73 1.4 3.14 3.14 3.14h86.02c1.73 0 3.14-1.4 3.14-3.14v-3.92z" fill="#fff"/><path d="m753.4 719.72 24.68 99.29-6.35 9.98-23.35 37.56-1.32-5.12 22.83-39.81-18.31-73.06c-2.41-9.57-1.77-19.65 1.82-28.84z" fill="#000" opacity=".15"/><path d="m792.34 872.9-8.24 10.49 17.71 62.9h9.83z" fill="#000" opacity=".15"/><path d="m805.17 699.91 29.14 92.24c3.57 11.31 1.43 23.65-5.76 33.09l-93.94 123.42-8.95-7.88 96.96-129.25c1.26-1.67 1.63-3.85 1.01-5.84l-31.01-100.15h8.41c2.94-.01 5.02-2.84 4.14-5.63z" fill="#000" opacity=".15"/><path d="m748.15 673.39h-14.91c-1.52 0-2.76-1.24-2.76-2.76v-6.63c0-1.52 1.24-2.76 2.76-2.76h14.91c1.52 0 2.76 1.24 2.76 2.76v6.63c0 1.52-1.24 2.76-2.76 2.76z" fill="#d9dcde"/><path d="m746.85 672h-12.31c-1.21 0-2.19-.98-2.19-2.19v-4.99c0-1.21.98-2.19 2.19-2.19h12.31c1.21 0 2.19.98 2.19 2.19v4.99c0 1.21-.98 2.19-2.19 2.19z" fill="#fff"/><path d="m758.07 662.5h-2.49v10.89h2.49z" fill="#4d61fc"/><path d="m758.07 662.5h-2.49v10.89h2.49z" fill="#fff" opacity=".2"/><path d="m726.41 662.5h-2.49v10.89h2.49z" fill="#4d61fc"/><path d="m726.41 662.5h-2.49v10.89h2.49z" fill="#fff" opacity=".2"/><path d="m490.33 621.61c12.056 0 21.83-9.773 21.83-21.83 0-12.056-9.774-21.83-21.83-21.83s-21.83 9.774-21.83 21.83c0 12.057 9.774 21.83 21.83 21.83z" fill="#000"/><path d="m546.57 607.75h-41.57v-15.95h41.57c4.41 0 7.98 3.57 7.98 7.98 0 4.4-3.58 7.97-7.98 7.97z" fill="#000"/><path d="m437.34 607.75h41.57v-15.95h-41.57c-4.41 0-7.98 3.57-7.98 7.98 0 4.4 3.57 7.97 7.98 7.97z" fill="#000"/><path d="m549.11 635.16c-.21 0-.43-.03-.65-.09l-43.56-12.03c-.95-.26-1.64-1.07-1.77-2.04l-1.29-10.21c-.17-1.33.78-2.55 2.11-2.72s2.55.78 2.72 2.11l1.09 8.61 42 11.59c1.3.36 2.06 1.7 1.7 2.99-.3 1.08-1.28 1.79-2.35 1.79z" fill="#000"/><path d="m431.71 635.16c.21 0 .43-.03.65-.09l43.56-12.03c.95-.26 1.64-1.07 1.77-2.04l1.29-10.21c.17-1.33-.78-2.55-2.11-2.72s-2.55.78-2.72 2.11l-1.09 8.61-42 11.59c-1.3.36-2.06 1.7-1.7 2.99.3 1.08 1.28 1.79 2.35 1.79z" fill="#000"/><path d="m546.53 607.751c4.402 0 7.97-3.569 7.97-7.97 0-4.402-3.568-7.97-7.97-7.97s-7.97 3.568-7.97 7.97c0 4.401 3.568 7.97 7.97 7.97z" fill="#3f4249"/><path d="m490.33 616.32c9.135 0 16.54-7.405 16.54-16.54s-7.405-16.54-16.54-16.54-16.54 7.405-16.54 16.54 7.405 16.54 16.54 16.54z" fill="#d9dcde"/><path d="m480.36 599.781c0-8.01 5.69-14.691 13.26-16.221-1.06-.21-2.16-.33-3.29-.33-9.14 0-16.54 7.411-16.54 16.541 0 9.14 7.41 16.539 16.54 16.539 1.13 0 2.23-.11 3.29-.33-7.56-1.51-13.26-8.189-13.26-16.199z" fill="#3f4249"/><path d="m1350.55 1052.94h-1168.4c-.36 0-.6-.24-.6-.6s.24-.6.6-.6h1168.52c.36 0 .6.24.6.6s-.36.6-.72.6z" fill="#b2b6bb"/><path d="m1120.98 906.039s-30.18-38.66-32.06-100.43c0 0 47.62 31.14 60.82 88.65z" fill="#4d61fc"/><path d="m1120.03 885.14s1.17-49.03 38.86-98c0 0 17.09 54.27-9.16 107.12z" fill="#4d61fc"/><path d="m1158.9 787.14c-15.95 20.72-25.34 41.43-30.89 58.46 9.05 13.16 17.32 29.43 21.74 48.67 26.24-52.85 9.15-107.13 9.15-107.13z" fill="#fff" opacity=".4"/><path d="m1151.53 814.09-9.74 56.18" stroke="#000" stroke-linecap="round" stroke-linejoin="round" stroke-miterlimit="10"/><path d="m1143.94 822.78 3.25 16.33 9.65-10.77" stroke="#000" stroke-linecap="round" stroke-linejoin="round" stroke-miterlimit="10"/><path d="m1157.74 846.53-14.1 13.06-9.01-14.3" stroke="#000" stroke-linecap="round" stroke-linejoin="round" stroke-miterlimit="10"/><path d="m1120.98 906.039s-30.18-38.66-32.06-100.43c0 0 47.62 31.14 60.82 88.65z" fill="#fff" opacity=".2"/><path d="m1105.65 840.699 29.23 61.86" stroke="#000" stroke-linecap="round" stroke-linejoin="round" stroke-miterlimit="10"/><path d="m1104.45 852.179 12.05 11.48 1.69-14.37" stroke="#000" stroke-linecap="round" stroke-linejoin="round" stroke-miterlimit="10"/><path d="m1129.39 863.659-4.01 18.79-15.6-6.51" stroke="#000" stroke-linecap="round" stroke-linejoin="round" stroke-miterlimit="10"/><path d="m1124.51 913.3s-.33-45.46 56.74-46.13c57.08-.66 82.63 30.2 82.63 37.83s-11.61 8.3-11.61 8.3z" fill="#4d61fc"/><path d="m1142.49 913.3s-8.15-20.91-31.94-18.9c-23.78 2.01-31.16 14.21-32.05 18.9z" fill="#3f4249"/><path d="m247.74 580.22c77.21-10.07 69.38-57.07 69.38-57.07s24.62-3.36 66.02-17.9c41.04-14.42 78.96-26.12 65.45-147.34 0 0-11.71-4.87-11.84-5.95l-141.41-7.21-161.75 155.21 7.68 55.99 1.69 12.43c21.52 8.44 58.02 17.94 104.78 11.84z" fill="#4d61fc"/><path d="m247.74 580.22c77.21-10.07 69.38-57.07 69.38-57.07s24.62-3.36 66.02-17.9c40.59-14.26 77.96-27.45 65.69-145.01-.24-2.35-11.8-5.85-12.08-8.28l-141.41-7.21-161.75 155.21 7.68 55.99 1.69 12.43c21.52 8.44 58.02 17.94 104.78 11.84z" fill="#000" opacity=".0225"/><path d="m114.34 486.95-.88-2.96c.01-.01-1.93.64.88 2.96z" fill="#4d61fc"/><path d="m330.55 550c30.21-16.78 26.86-41.4 26.86-41.4s90.64-22.38 59.31-95.11c-15.4-35.75-45.72 51.76-83.92 72.73-57.07 31.33-110.78 39.16-170.08 20.14-11.01-3.53-19.62-6.52-26.36-9.05l-2.76 2.64 6.67 48.6c77.15 29.23 161.16 17.63 190.28 1.45z" fill="#4d61fc"/><path d="m246.77 540.8c-32.42 0-58.71-26.28-58.71-58.71v-29.69l-10.91 9.21-3.26 22.85c0 38.2 30.97 69.17 69.17 69.17h19.23v-12.83z" fill="#000"/><path d="m260.81 583.32c41.76 1.38 73.09-26.28 73.09-58.71v-63h14.55v65.37c0 38.2-37.24 69.17-83.18 69.17h-17.38v-12.82z" fill="#000"/><path d="m175.33 641.97c55.04-7.78 75.15-58.82 75.15-98.63v-36.46h17.4v39.36c0 46.9-28.52 103.02-92.48 112.09-5.17.73-20.54 2.43-20.54 2.43l-2.48-16.59s17.24-1.4 22.95-2.2z" fill="#000"/><path d="m372 452.04c58.19-4.12 102.9-28.57 102.9-58.13 0-32.44-53.86-58.75-120.29-58.75-20.39 0-39.6 2.48-56.42 6.86l-164.6 157.94.6 4.36c25.19 11.1 56.82 17.71 91.18 17.71 73.48 0 134.52-30.24 146.63-69.99z" fill="#4d61fc"/><path d="m372 452.04c58.19-4.12 102.9-28.57 102.9-58.13 0-32.44-53.86-58.75-120.29-58.75-20.39 0-39.6 2.48-56.42 6.86l-164.6 157.94.6 4.36c25.19 11.1 56.82 17.71 91.18 17.71 73.48 0 134.52-30.24 146.63-69.99z" fill="#fff" opacity=".49"/><path d="m335.02 406.22c0-5.76-2.51-11.28-7.11-16.41 31.18-1.28 55.23-9.48 55.23-19.4 0-10.81-28.56-19.58-63.78-19.58-12.24 0-23.67 1.06-33.38 2.9l-103.79 99.59c9.86 1.03 20.2 1.57 30.86 1.57 67.36 0 121.97-21.79 121.97-48.67z" fill="#4d61fc"/><path d="m335.02 406.22c0-5.76-2.51-11.28-7.11-16.41 31.18-1.28 55.23-9.48 55.23-19.4 0-10.81-28.56-19.58-63.78-19.58-12.24 0-23.67 1.06-33.38 2.9l-103.79 99.59c9.86 1.03 20.2 1.57 30.86 1.57 67.36 0 121.97-21.79 121.97-48.67z" fill="#fff" opacity=".64"/></svg>