<svg height="64" viewBox="0 0 64 64" width="64" xmlns="http://www.w3.org/2000/svg"><g fill="none" fill-rule="evenodd"><path d="m61 38c0-16.0162577-12.9837423-29-29-29s-29 12.9837423-29 29z" fill="#ed9111"/><path d="m32.4912342 14c-9.4120362 0-17.5586518 5.4179091-21.4912342 13.3051145" stroke="#fff" stroke-linecap="round" stroke-width="2"/><path d="m3 39h58v3h-58z" fill="#fcc24c"/><circle cx="32" cy="4" fill="#fcc24c" r="3"/><g transform="matrix(0 1 1 0 4 45)"><path d="m2 13.5c0-1.3807119 1.11962422-2.5 2.50653076-2.5h10.49346924v5h-10.49346924c-1.38431871 0-2.50653076-1.1096621-2.50653076-2.5z" fill="#fcc24c" transform="matrix(.8571673 .51503807 -.51503807 .8571673 8.167092 -2.449582)"/><path d="m5.74754919 45-.02493664-11.2721682s-7.7962314-14.4305883-5.18917539-16.5811044c2.60705602-2.150516 6.33296769 5.7472182 6.33296769 5.7472182l1.93753053-3.1473549.1834961-10.35230532-2.6525131-5.1394604c-.50811007-.98450469-.12847867-2.21549681.82982344-2.73959505l.92775514-.50739203c.9664089-.52853187 2.16813894-.16207205 2.68511794.82037096l3.6864692 7.00559526 1.5063882 11.65341998s2.8339154 4.4640735-.9017921 24.0687208" fill="#ffdd95"/><path d="m2 44h17v8h-17z" fill="#d8d8d8"/></g></g></svg>